<svg xmlns="http://www.w3.org/2000/svg" xmlns:xlink="http://www.w3.org/1999/xlink" width="590" zoomAndPan="magnify" viewBox="0 0 442.5 157.5" height="210" preserveAspectRatio="xMidYMid meet" version="1.0"><defs><g/><clipPath id="90e71642af"><path d="M 383.738281 3.023438 L 427.347656 3.023438 L 427.347656 156.5 L 383.738281 156.5 Z M 383.738281 3.023438 " clip-rule="nonzero"/></clipPath><clipPath id="1c2570df00"><path d="M 394.207031 3.023438 L 416.878906 3.023438 C 419.65625 3.023438 422.316406 4.125 424.28125 6.089844 C 426.242188 8.050781 427.347656 10.714844 427.347656 13.488281 L 427.347656 145.996094 C 427.347656 148.773438 426.242188 151.433594 424.28125 153.398438 C 422.316406 155.359375 419.65625 156.464844 416.878906 156.464844 L 394.207031 156.464844 C 391.429688 156.464844 388.765625 155.359375 386.804688 153.398438 C 384.839844 151.433594 383.738281 148.773438 383.738281 145.996094 L 383.738281 13.488281 C 383.738281 10.714844 384.839844 8.050781 386.804688 6.089844 C 388.765625 4.125 391.429688 3.023438 394.207031 3.023438 Z M 394.207031 3.023438 " clip-rule="nonzero"/></clipPath><clipPath id="8e99093ae8"><path d="M 0.738281 0.0234375 L 44.347656 0.0234375 L 44.347656 153.464844 L 0.738281 153.464844 Z M 0.738281 0.0234375 " clip-rule="nonzero"/></clipPath><clipPath id="5d32305de6"><path d="M 11.207031 0.0234375 L 33.878906 0.0234375 C 36.65625 0.0234375 39.316406 1.125 41.28125 3.089844 C 43.242188 5.050781 44.347656 7.714844 44.347656 10.488281 L 44.347656 142.996094 C 44.347656 145.773438 43.242188 148.433594 41.28125 150.398438 C 39.316406 152.359375 36.65625 153.464844 33.878906 153.464844 L 11.207031 153.464844 C 8.429688 153.464844 5.765625 152.359375 3.804688 150.398438 C 1.839844 148.433594 0.738281 145.773438 0.738281 142.996094 L 0.738281 10.488281 C 0.738281 7.714844 1.839844 5.050781 3.804688 3.089844 C 5.765625 1.125 8.429688 0.0234375 11.207031 0.0234375 Z M 11.207031 0.0234375 " clip-rule="nonzero"/></clipPath><clipPath id="80b52c51aa"><rect x="0" width="45" y="0" height="154"/></clipPath><clipPath id="7db13416a6"><path d="M 379.027344 0.539062 L 422.632812 0.539062 L 422.632812 154 L 379.027344 154 Z M 379.027344 0.539062 " clip-rule="nonzero"/></clipPath><clipPath id="8069b2a50e"><path d="M 389.492188 0.539062 L 412.164062 0.539062 C 414.941406 0.539062 417.605469 1.640625 419.566406 3.605469 C 421.53125 5.566406 422.632812 8.230469 422.632812 11.003906 L 422.632812 143.511719 C 422.632812 146.289062 421.53125 148.949219 419.566406 150.914062 C 417.605469 152.875 414.941406 153.980469 412.164062 153.980469 L 389.492188 153.980469 C 386.714844 153.980469 384.054688 152.875 382.089844 150.914062 C 380.128906 148.949219 379.027344 146.289062 379.027344 143.511719 L 379.027344 11.003906 C 379.027344 8.230469 380.128906 5.566406 382.089844 3.605469 C 384.054688 1.640625 386.714844 0.539062 389.492188 0.539062 Z M 389.492188 0.539062 " clip-rule="nonzero"/></clipPath><clipPath id="8737d56498"><path d="M 0.0273438 0.539062 L 43.632812 0.539062 L 43.632812 154 L 0.0273438 154 Z M 0.0273438 0.539062 " clip-rule="nonzero"/></clipPath><clipPath id="3a70611482"><path d="M 10.492188 0.539062 L 33.164062 0.539062 C 35.941406 0.539062 38.605469 1.640625 40.566406 3.605469 C 42.53125 5.566406 43.632812 8.230469 43.632812 11.003906 L 43.632812 143.511719 C 43.632812 146.289062 42.53125 148.949219 40.566406 150.914062 C 38.605469 152.875 35.941406 153.980469 33.164062 153.980469 L 10.492188 153.980469 C 7.714844 153.980469 5.054688 152.875 3.089844 150.914062 C 1.128906 148.949219 0.0273438 146.289062 0.0273438 143.511719 L 0.0273438 11.003906 C 0.0273438 8.230469 1.128906 5.566406 3.089844 3.605469 C 5.054688 1.640625 7.714844 0.539062 10.492188 0.539062 Z M 10.492188 0.539062 " clip-rule="nonzero"/></clipPath><clipPath id="dec30ceedd"><rect x="0" width="44" y="0" height="154"/></clipPath><clipPath id="9cc00d69ec"><path d="M 7 50 L 87 50 L 87 103 L 7 103 Z M 7 50 " clip-rule="nonzero"/></clipPath><clipPath id="e7376a25de"><path d="M 16.0625 48.445312 L 89.339844 80.722656 L 78.648438 104.992188 L 5.371094 72.710938 Z M 16.0625 48.445312 " clip-rule="nonzero"/></clipPath><clipPath id="d92a4b5c51"><path d="M 86.289062 87.546875 L 81.628906 98.136719 C 80.828125 99.949219 79.339844 101.371094 77.492188 102.089844 C 75.644531 102.808594 73.585938 102.761719 71.773438 101.960938 L 12.210938 75.726562 C 10.398438 74.925781 8.972656 73.4375 8.257812 71.589844 C 7.539062 69.742188 7.585938 67.683594 8.382812 65.871094 L 13.046875 55.285156 C 13.847656 53.46875 15.335938 52.046875 17.183594 51.328125 C 19.03125 50.613281 21.085938 50.65625 22.902344 51.457031 L 82.464844 77.695312 C 84.277344 78.492188 85.699219 79.980469 86.417969 81.828125 C 87.136719 83.675781 87.089844 85.734375 86.289062 87.546875 Z M 86.289062 87.546875 " clip-rule="nonzero"/></clipPath><clipPath id="d0dd284cbf"><path d="M 0.390625 0.480469 L 80 0.480469 L 80 52.875 L 0.390625 52.875 Z M 0.390625 0.480469 " clip-rule="nonzero"/></clipPath><clipPath id="875dee78d9"><path d="M 9.0625 -1.554688 L 82.339844 30.722656 L 71.648438 54.992188 L -1.628906 22.710938 Z M 9.0625 -1.554688 " clip-rule="nonzero"/></clipPath><clipPath id="4cbe708a74"><path d="M 79.289062 37.546875 L 74.628906 48.136719 C 73.828125 49.949219 72.339844 51.371094 70.492188 52.089844 C 68.644531 52.808594 66.585938 52.761719 64.773438 51.960938 L 5.210938 25.726562 C 3.398438 24.925781 1.972656 23.4375 1.257812 21.589844 C 0.539062 19.742188 0.585938 17.683594 1.382812 15.871094 L 6.046875 5.285156 C 6.847656 3.46875 8.335938 2.046875 10.183594 1.328125 C 12.03125 0.613281 14.085938 0.65625 15.902344 1.457031 L 75.464844 27.695312 C 77.277344 28.492188 78.699219 29.980469 79.417969 31.828125 C 80.136719 33.675781 80.089844 35.734375 79.289062 37.546875 Z M 79.289062 37.546875 " clip-rule="nonzero"/></clipPath><clipPath id="218d345c5e"><rect x="0" width="80" y="0" height="53"/></clipPath><clipPath id="fe5fa4fbad"><path d="M 12 88 L 92 88 L 92 135 L 12 135 Z M 12 88 " clip-rule="nonzero"/></clipPath><clipPath id="1fa28109a8"><path d="M 9.808594 121.664062 L 87.261719 86.558594 L 94.03125 101.488281 L 16.578125 136.59375 Z M 9.808594 121.664062 " clip-rule="nonzero"/></clipPath><clipPath id="1c52b97665"><path d="M 90.339844 93.371094 L 90.933594 94.683594 C 91.753906 96.488281 91.820312 98.546875 91.121094 100.402344 C 90.425781 102.257812 89.019531 103.757812 87.210938 104.578125 L 23.382812 133.507812 C 21.578125 134.328125 19.523438 134.394531 17.667969 133.695312 C 15.8125 132.996094 14.308594 131.589844 13.492188 129.785156 L 12.894531 128.472656 C 12.078125 126.664062 12.007812 124.609375 12.707031 122.753906 C 13.40625 120.898438 14.8125 119.394531 16.617188 118.578125 L 80.445312 89.648438 C 82.25 88.828125 84.308594 88.761719 86.164062 89.460938 C 88.019531 90.15625 89.519531 91.5625 90.339844 93.371094 Z M 90.339844 93.371094 " clip-rule="nonzero"/></clipPath><clipPath id="ff6966c8e7"><path d="M 0 0.757812 L 79.839844 0.757812 L 79.839844 46.453125 L 0 46.453125 Z M 0 0.757812 " clip-rule="nonzero"/></clipPath><clipPath id="2344066f39"><path d="M -2.191406 33.664062 L 75.261719 -1.441406 L 82.03125 13.488281 L 4.578125 48.59375 Z M -2.191406 33.664062 " clip-rule="nonzero"/></clipPath><clipPath id="d6b292a061"><path d="M 78.339844 5.371094 L 78.933594 6.683594 C 79.753906 8.488281 79.820312 10.546875 79.121094 12.402344 C 78.425781 14.257812 77.019531 15.757812 75.210938 16.578125 L 11.382812 45.507812 C 9.578125 46.328125 7.523438 46.394531 5.667969 45.695312 C 3.8125 44.996094 2.308594 43.589844 1.492188 41.785156 L 0.894531 40.472656 C 0.078125 38.664062 0.0078125 36.609375 0.707031 34.753906 C 1.40625 32.898438 2.8125 31.394531 4.617188 30.578125 L 68.445312 1.648438 C 70.25 0.828125 72.308594 0.761719 74.164062 1.460938 C 76.019531 2.15625 77.519531 3.5625 78.339844 5.371094 Z M 78.339844 5.371094 " clip-rule="nonzero"/></clipPath><clipPath id="35c576cd05"><rect x="0" width="80" y="0" height="47"/></clipPath><clipPath id="17cde41991"><path d="M 4 43 L 92 43 L 92 99 L 4 99 Z M 4 43 " clip-rule="nonzero"/></clipPath><clipPath id="3be40b7c45"><path d="M 12.773438 40.960938 L 94.171875 77.417969 L 83.8125 100.546875 L 2.414062 64.089844 Z M 12.773438 40.960938 " clip-rule="nonzero"/></clipPath><clipPath id="2f0aef501f"><path d="M 91.082031 84.226562 L 86.832031 93.710938 C 86.023438 95.519531 84.527344 96.933594 82.675781 97.640625 C 80.824219 98.34375 78.765625 98.285156 76.957031 97.476562 L 9.234375 67.144531 C 7.425781 66.332031 6.011719 64.835938 5.308594 62.984375 C 4.601562 61.132812 4.660156 59.074219 5.46875 57.265625 L 9.71875 47.78125 C 10.527344 45.972656 12.023438 44.558594 13.875 43.851562 C 15.730469 43.148438 17.785156 43.207031 19.59375 44.015625 L 87.316406 74.347656 C 89.125 75.160156 90.539062 76.65625 91.246094 78.507812 C 91.949219 80.359375 91.890625 82.417969 91.082031 84.226562 Z M 91.082031 84.226562 " clip-rule="nonzero"/></clipPath><clipPath id="f749ee4a85"><path d="M 0.519531 0.0625 L 88 0.0625 L 88 55.566406 L 0.519531 55.566406 Z M 0.519531 0.0625 " clip-rule="nonzero"/></clipPath><clipPath id="ee874d66b9"><path d="M 8.773438 -2.039062 L 90.171875 34.417969 L 79.8125 57.546875 L -1.585938 21.089844 Z M 8.773438 -2.039062 " clip-rule="nonzero"/></clipPath><clipPath id="4e44ede972"><path d="M 87.082031 41.226562 L 82.832031 50.710938 C 82.023438 52.519531 80.527344 53.933594 78.675781 54.640625 C 76.824219 55.34375 74.765625 55.285156 72.957031 54.476562 L 5.234375 24.144531 C 3.425781 23.332031 2.011719 21.835938 1.308594 19.984375 C 0.601562 18.132812 0.660156 16.074219 1.46875 14.265625 L 5.71875 4.78125 C 6.527344 2.972656 8.023438 1.558594 9.875 0.851562 C 11.730469 0.148438 13.785156 0.207031 15.59375 1.015625 L 83.316406 31.347656 C 85.125 32.160156 86.539062 33.65625 87.246094 35.507812 C 87.949219 37.359375 87.890625 39.417969 87.082031 41.226562 Z M 87.082031 41.226562 " clip-rule="nonzero"/></clipPath><clipPath id="322f35adb2"><rect x="0" width="88" y="0" height="56"/></clipPath><clipPath id="71453ad921"><path d="M 4 75 L 92 75 L 92 132 L 4 132 Z M 4 75 " clip-rule="nonzero"/></clipPath><clipPath id="d4093e3e00"><path d="M 2.417969 110.226562 L 83.710938 73.484375 L 94.222656 96.738281 L 12.925781 133.480469 Z M 2.417969 110.226562 " clip-rule="nonzero"/></clipPath><clipPath id="38e899ecae"><path d="M 86.769531 80.304688 L 91.121094 89.9375 C 91.9375 91.742188 92.003906 93.800781 91.304688 95.65625 C 90.605469 97.511719 89.195312 99.011719 87.390625 99.828125 L 19.738281 130.402344 C 17.929688 131.21875 15.875 131.285156 14.019531 130.582031 C 12.164062 129.882812 10.664062 128.476562 9.847656 126.667969 L 5.496094 117.039062 C 4.679688 115.230469 4.613281 113.175781 5.3125 111.320312 C 6.011719 109.464844 7.421875 107.964844 9.226562 107.148438 L 76.878906 76.574219 C 78.6875 75.757812 80.742188 75.691406 82.597656 76.390625 C 84.453125 77.089844 85.953125 78.5 86.769531 80.304688 Z M 86.769531 80.304688 " clip-rule="nonzero"/></clipPath><clipPath id="f6455c5025"><path d="M 0.519531 0.601562 L 88 0.601562 L 88 56.34375 L 0.519531 56.34375 Z M 0.519531 0.601562 " clip-rule="nonzero"/></clipPath><clipPath id="de8de215a7"><path d="M -1.582031 35.226562 L 79.710938 -1.515625 L 90.222656 21.738281 L 8.925781 58.480469 Z M -1.582031 35.226562 " clip-rule="nonzero"/></clipPath><clipPath id="3fc45d81ca"><path d="M 82.769531 5.304688 L 87.121094 14.9375 C 87.9375 16.742188 88.003906 18.800781 87.304688 20.65625 C 86.605469 22.511719 85.195312 24.011719 83.390625 24.828125 L 15.738281 55.402344 C 13.929688 56.21875 11.875 56.285156 10.019531 55.582031 C 8.164062 54.882812 6.664062 53.476562 5.847656 51.667969 L 1.496094 42.039062 C 0.679688 40.230469 0.613281 38.175781 1.3125 36.320312 C 2.011719 34.464844 3.421875 32.964844 5.226562 32.148438 L 72.878906 1.574219 C 74.6875 0.757812 76.742188 0.691406 78.597656 1.390625 C 80.453125 2.089844 81.953125 3.5 82.769531 5.304688 Z M 82.769531 5.304688 " clip-rule="nonzero"/></clipPath><clipPath id="4425b81740"><rect x="0" width="88" y="0" height="57"/></clipPath></defs><g fill="#84e1ba" fill-opacity="1"><g transform="translate(115.73673, 135.96525)"><g><path d="M 0.140625 -28.484375 C -0.703125 -28.910156 -1.367188 -29.476562 -1.859375 -30.1875 C -2.347656 -30.894531 -2.695312 -31.6875 -2.90625 -32.5625 C -3.113281 -33.445312 -3.226562 -34.347656 -3.25 -35.265625 C -3.28125 -36.191406 -3.257812 -37.078125 -3.1875 -37.921875 C -2.976562 -40.347656 -2.40625 -42.710938 -1.46875 -45.015625 C -0.53125 -47.316406 0.519531 -49.515625 1.6875 -51.609375 C 2.664062 -53.390625 3.789062 -55.097656 5.0625 -56.734375 C 6.332031 -58.367188 7.890625 -59.65625 9.734375 -60.59375 C 10.785156 -61.125 11.894531 -61.519531 13.0625 -61.78125 C 14.238281 -62.039062 15.410156 -62.101562 16.578125 -61.96875 C 17.742188 -61.84375 18.828125 -61.460938 19.828125 -60.828125 C 21.085938 -60.085938 22.015625 -59.300781 22.609375 -58.46875 C 23.210938 -57.632812 23.597656 -56.851562 23.765625 -56.125 C 23.941406 -55.40625 24.015625 -54.816406 23.984375 -54.359375 C 23.953125 -53.910156 23.9375 -53.6875 23.9375 -53.6875 C 23.75 -53.382812 23.429688 -53.28125 22.984375 -53.375 C 22.546875 -53.46875 22.234375 -53.648438 22.046875 -53.921875 C 21.578125 -54.691406 21.128906 -55.46875 20.703125 -56.25 C 20.285156 -57.039062 19.757812 -57.707031 19.125 -58.25 C 18.5 -58.800781 17.648438 -59.113281 16.578125 -59.1875 C 15.285156 -59.300781 14.03125 -59.035156 12.8125 -58.390625 C 11.601562 -57.753906 10.554688 -57.023438 9.671875 -56.203125 C 8.128906 -54.773438 6.828125 -53.097656 5.765625 -51.171875 C 4.703125 -49.242188 3.75 -47.335938 2.90625 -45.453125 C 2.414062 -44.304688 1.972656 -43.132812 1.578125 -41.9375 C 1.179688 -40.75 0.890625 -39.535156 0.703125 -38.296875 C 0.609375 -37.710938 0.539062 -37.128906 0.5 -36.546875 C 0.46875 -35.960938 0.460938 -35.367188 0.484375 -34.765625 C 0.535156 -33.960938 0.722656 -33.289062 1.046875 -32.75 C 1.378906 -32.21875 1.789062 -31.875 2.28125 -31.71875 C 2.90625 -31.53125 3.546875 -31.660156 4.203125 -32.109375 C 4.859375 -32.566406 5.492188 -33.226562 6.109375 -34.09375 C 6.734375 -34.957031 7.3125 -35.890625 7.84375 -36.890625 C 8.382812 -37.898438 8.867188 -38.851562 9.296875 -39.75 C 9.734375 -40.65625 10.09375 -41.363281 10.375 -41.875 C 10.65625 -42.414062 10.972656 -43.054688 11.328125 -43.796875 C 11.691406 -44.546875 12.09375 -45.28125 12.53125 -46 C 12.976562 -46.726562 13.441406 -47.332031 13.921875 -47.8125 C 14.398438 -48.289062 14.890625 -48.507812 15.390625 -48.46875 C 16.578125 -48.394531 17.5 -47.945312 18.15625 -47.125 C 18.8125 -46.3125 19.207031 -45.367188 19.34375 -44.296875 C 19.457031 -43.359375 19.523438 -42.414062 19.546875 -41.46875 C 19.578125 -40.519531 19.625 -39.566406 19.6875 -38.609375 C 19.71875 -38.378906 19.757812 -37.984375 19.8125 -37.421875 C 19.875 -36.859375 19.960938 -36.273438 20.078125 -35.671875 C 20.191406 -35.066406 20.351562 -34.546875 20.5625 -34.109375 C 20.78125 -33.679688 21.050781 -33.46875 21.375 -33.46875 C 21.726562 -33.46875 22.15625 -33.71875 22.65625 -34.21875 C 23.15625 -34.71875 23.671875 -35.320312 24.203125 -36.03125 C 24.742188 -36.75 25.242188 -37.445312 25.703125 -38.125 C 26.160156 -38.800781 26.503906 -39.328125 26.734375 -39.703125 C 27.503906 -40.847656 28.191406 -41.976562 28.796875 -43.09375 C 29.410156 -44.21875 29.972656 -45.421875 30.484375 -46.703125 C 30.535156 -46.828125 30.640625 -46.851562 30.796875 -46.78125 C 30.960938 -46.707031 31.023438 -46.613281 30.984375 -46.5 C 30.796875 -46.007812 30.515625 -45.257812 30.140625 -44.25 C 29.765625 -43.25 29.304688 -42.132812 28.765625 -40.90625 C 28.234375 -39.6875 27.632812 -38.46875 26.96875 -37.25 C 26.300781 -36.03125 25.585938 -34.941406 24.828125 -33.984375 C 24.066406 -33.023438 23.273438 -32.316406 22.453125 -31.859375 C 21.640625 -31.410156 20.8125 -31.328125 19.96875 -31.609375 C 19.132812 -31.890625 18.296875 -32.671875 17.453125 -33.953125 C 16.890625 -34.796875 16.515625 -35.765625 16.328125 -36.859375 C 16.140625 -37.960938 15.988281 -39.015625 15.875 -40.015625 C 15.800781 -40.578125 15.742188 -41.140625 15.703125 -41.703125 C 15.671875 -42.265625 15.644531 -42.835938 15.625 -43.421875 C 15.28125 -42.410156 14.769531 -41.367188 14.09375 -40.296875 C 13.414062 -39.222656 12.816406 -38.265625 12.296875 -37.421875 C 11.734375 -36.484375 11.140625 -35.5625 10.515625 -34.65625 C 9.898438 -33.75 9.253906 -32.863281 8.578125 -32 C 8.085938 -31.34375 7.53125 -30.710938 6.90625 -30.109375 C 6.289062 -29.515625 5.617188 -29.015625 4.890625 -28.609375 C 4.171875 -28.203125 3.414062 -27.96875 2.625 -27.90625 C 1.832031 -27.851562 1.003906 -28.046875 0.140625 -28.484375 Z M 0.140625 -28.484375 "/></g></g><g transform="translate(146.050651, 135.96525)"><g><path d="M 4 -17.734375 C 2.988281 -21.003906 2.203125 -24.359375 1.640625 -27.796875 C 1.085938 -31.242188 0.679688 -34.734375 0.421875 -38.265625 C 0.160156 -41.796875 0 -45.316406 -0.0625 -48.828125 C -0.132812 -52.347656 -0.179688 -55.800781 -0.203125 -59.1875 C -0.203125 -59.8125 -0.191406 -60.898438 -0.171875 -62.453125 C -0.148438 -64.015625 -0.101562 -65.90625 -0.03125 -68.125 C 0.03125 -70.34375 0.140625 -72.773438 0.296875 -75.421875 C 0.453125 -78.078125 0.648438 -80.84375 0.890625 -83.71875 C 1.140625 -86.59375 1.4375 -89.460938 1.78125 -92.328125 C 2.132812 -95.203125 2.554688 -97.960938 3.046875 -100.609375 C 3.535156 -103.265625 4.109375 -105.691406 4.765625 -107.890625 C 5.421875 -110.085938 6.15625 -111.945312 6.96875 -113.46875 C 7.789062 -114.988281 8.710938 -116.0625 9.734375 -116.6875 C 10.765625 -117.320312 11.910156 -117.378906 13.171875 -116.859375 C 14.015625 -116.515625 14.675781 -115.972656 15.15625 -115.234375 C 15.632812 -114.492188 15.988281 -113.65625 16.21875 -112.71875 C 16.457031 -111.789062 16.613281 -110.851562 16.6875 -109.90625 C 16.769531 -108.957031 16.8125 -108.113281 16.8125 -107.375 C 16.863281 -104.6875 16.65625 -101.992188 16.1875 -99.296875 C 15.71875 -96.597656 15.191406 -93.9375 14.609375 -91.3125 C 13.859375 -87.8125 12.984375 -84.242188 11.984375 -80.609375 C 10.984375 -76.984375 9.796875 -73.410156 8.421875 -69.890625 C 7.054688 -66.367188 5.441406 -63.046875 3.578125 -59.921875 C 3.578125 -59.472656 3.578125 -59.007812 3.578125 -58.53125 C 3.578125 -58.050781 3.578125 -57.582031 3.578125 -57.125 C 3.617188 -54.476562 3.695312 -51.832031 3.8125 -49.1875 C 3.9375 -46.550781 4.078125 -43.914062 4.234375 -41.28125 C 4.234375 -41.320312 4.238281 -41.363281 4.25 -41.40625 C 4.269531 -41.457031 4.28125 -41.5 4.28125 -41.53125 C 4.769531 -44.84375 5.503906 -48.101562 6.484375 -51.3125 C 7.460938 -54.53125 8.769531 -57.597656 10.40625 -60.515625 C 10.988281 -61.546875 11.625 -62.5625 12.3125 -63.5625 C 13 -64.570312 13.769531 -65.488281 14.625 -66.3125 C 15.476562 -67.144531 16.429688 -67.816406 17.484375 -68.328125 C 18.535156 -68.847656 19.703125 -69.128906 20.984375 -69.171875 C 22.671875 -69.242188 24.148438 -68.925781 25.421875 -68.21875 C 26.691406 -67.519531 27.742188 -66.554688 28.578125 -65.328125 C 29.410156 -64.109375 29.988281 -62.710938 30.3125 -61.140625 C 30.5 -60.328125 30.648438 -59.5 30.765625 -58.65625 C 30.878906 -57.820312 30.972656 -56.972656 31.046875 -56.109375 C 32.492188 -56.597656 33.960938 -56.941406 35.453125 -57.140625 C 36.953125 -57.335938 38.453125 -57.378906 39.953125 -57.265625 C 40.066406 -57.234375 40.1875 -57.15625 40.3125 -57.03125 C 40.445312 -56.90625 40.421875 -56.816406 40.234375 -56.765625 C 38.660156 -56.347656 37.113281 -55.925781 35.59375 -55.5 C 34.082031 -55.082031 32.601562 -54.570312 31.15625 -53.96875 C 31.195312 -50.550781 30.84375 -47.234375 30.09375 -44.015625 C 29.726562 -42.328125 29.238281 -40.566406 28.625 -38.734375 C 28.019531 -36.898438 27.257812 -35.148438 26.34375 -33.484375 C 25.4375 -31.816406 24.351562 -30.347656 23.09375 -29.078125 C 22.175781 -28.191406 21.09375 -27.570312 19.84375 -27.21875 C 18.59375 -26.875 17.351562 -26.835938 16.125 -27.109375 C 14.90625 -27.378906 13.84375 -28.015625 12.9375 -29.015625 C 12.019531 -30.015625 11.46875 -31.125 11.28125 -32.34375 C 11.09375 -33.5625 11.144531 -34.804688 11.4375 -36.078125 C 11.726562 -37.347656 12.160156 -38.582031 12.734375 -39.78125 C 13.304688 -40.988281 13.894531 -42.0625 14.5 -43 C 16.019531 -45.351562 17.890625 -47.546875 20.109375 -49.578125 C 22.328125 -51.609375 24.75 -53.28125 27.375 -54.59375 C 27.34375 -55.757812 27.265625 -56.992188 27.140625 -58.296875 C 27.015625 -59.609375 26.78125 -60.859375 26.4375 -62.046875 C 26.101562 -63.242188 25.632812 -64.238281 25.03125 -65.03125 C 24.4375 -65.832031 23.671875 -66.304688 22.734375 -66.453125 C 21.804688 -66.609375 20.675781 -66.300781 19.34375 -65.53125 C 18.21875 -64.875 17.21875 -64.015625 16.34375 -62.953125 C 15.46875 -61.890625 14.691406 -60.71875 14.015625 -59.4375 C 13.335938 -58.164062 12.726562 -56.875 12.1875 -55.5625 C 11.65625 -54.257812 11.179688 -53.023438 10.765625 -51.859375 C 9.753906 -49.054688 8.988281 -46.207031 8.46875 -43.3125 C 7.957031 -40.414062 7.503906 -37.492188 7.109375 -34.546875 C 6.878906 -32.609375 6.691406 -30.644531 6.546875 -28.65625 C 6.410156 -26.675781 6.238281 -24.703125 6.03125 -22.734375 C 6.164062 -20.984375 6.234375 -19.234375 6.234375 -17.484375 C 6.253906 -17.109375 6.085938 -16.898438 5.734375 -16.859375 C 5.390625 -16.828125 5.03125 -16.90625 4.65625 -17.09375 C 4.28125 -17.28125 4.0625 -17.492188 4 -17.734375 Z M 27.328125 -51.6875 C 27.328125 -51.757812 27.328125 -51.828125 27.328125 -51.890625 C 27.328125 -51.960938 27.328125 -52.046875 27.328125 -52.140625 C 27.140625 -52.023438 26.941406 -51.898438 26.734375 -51.765625 C 26.523438 -51.640625 26.316406 -51.507812 26.109375 -51.375 C 23.859375 -49.875 21.835938 -48.070312 20.046875 -45.96875 C 18.265625 -43.875 16.910156 -41.539062 15.984375 -38.96875 C 15.835938 -38.59375 15.671875 -38.050781 15.484375 -37.34375 C 15.296875 -36.644531 15.140625 -35.878906 15.015625 -35.046875 C 14.890625 -34.222656 14.84375 -33.425781 14.875 -32.65625 C 14.90625 -31.882812 15.066406 -31.21875 15.359375 -30.65625 C 15.648438 -30.101562 16.125 -29.765625 16.78125 -29.640625 C 17.457031 -29.523438 18.097656 -29.660156 18.703125 -30.046875 C 19.316406 -30.429688 19.878906 -30.941406 20.390625 -31.578125 C 20.910156 -32.222656 21.363281 -32.882812 21.75 -33.5625 C 22.132812 -34.25 22.453125 -34.820312 22.703125 -35.28125 C 24.085938 -37.78125 25.164062 -40.425781 25.9375 -43.21875 C 26.707031 -46.007812 27.171875 -48.832031 27.328125 -51.6875 Z M 8.03125 -106.875 C 7.5625 -105.3125 7.164062 -103.722656 6.84375 -102.109375 C 6.53125 -100.492188 6.257812 -98.882812 6.03125 -97.28125 C 5.300781 -92.132812 4.742188 -86.957031 4.359375 -81.75 C 3.972656 -76.539062 3.722656 -71.332031 3.609375 -66.125 C 4.453125 -67.925781 5.28125 -69.726562 6.09375 -71.53125 C 6.914062 -73.34375 7.664062 -75.1875 8.34375 -77.0625 C 10.488281 -83.101562 12.15625 -89.269531 13.34375 -95.5625 C 13.414062 -95.882812 13.523438 -96.492188 13.671875 -97.390625 C 13.828125 -98.296875 13.988281 -99.367188 14.15625 -100.609375 C 14.320312 -101.847656 14.460938 -103.15625 14.578125 -104.53125 C 14.691406 -105.90625 14.75 -107.242188 14.75 -108.546875 C 14.75 -109.859375 14.660156 -111.035156 14.484375 -112.078125 C 14.316406 -113.117188 14.015625 -113.921875 13.578125 -114.484375 C 13.148438 -115.046875 12.550781 -115.253906 11.78125 -115.109375 C 11.375 -115.035156 11 -114.757812 10.65625 -114.28125 C 10.320312 -113.8125 10.007812 -113.21875 9.71875 -112.5 C 9.425781 -111.789062 9.171875 -111.0625 8.953125 -110.3125 C 8.734375 -109.5625 8.546875 -108.875 8.390625 -108.25 C 8.242188 -107.632812 8.125 -107.175781 8.03125 -106.875 Z M 8.03125 -106.875 "/></g></g></g><g fill="#84e1ba" fill-opacity="1"><g transform="translate(185.12582, 135.96525)"><g><path d="M 14.015625 -37.359375 C 13.847656 -36.773438 13.578125 -35.984375 13.203125 -34.984375 C 12.835938 -33.992188 12.382812 -32.921875 11.84375 -31.765625 C 11.300781 -30.609375 10.695312 -29.46875 10.03125 -28.34375 C 9.375 -27.226562 8.648438 -26.222656 7.859375 -25.328125 C 7.078125 -24.441406 6.265625 -23.773438 5.421875 -23.328125 C 4.585938 -22.890625 3.722656 -22.78125 2.828125 -23 C 1.941406 -23.226562 1.054688 -23.890625 0.171875 -24.984375 C -0.503906 -25.828125 -0.988281 -26.785156 -1.28125 -27.859375 C -1.570312 -28.929688 -1.734375 -30.050781 -1.765625 -31.21875 C -1.804688 -32.382812 -1.769531 -33.546875 -1.65625 -34.703125 C -1.550781 -35.859375 -1.453125 -36.929688 -1.359375 -37.921875 C -1.085938 -40.515625 -0.691406 -43.117188 -0.171875 -45.734375 C 0.335938 -48.347656 1.050781 -50.878906 1.96875 -53.328125 C 2.101562 -53.722656 2.375 -53.941406 2.78125 -53.984375 C 3.195312 -54.035156 3.617188 -53.972656 4.046875 -53.796875 C 4.484375 -53.628906 4.835938 -53.375 5.109375 -53.03125 C 5.390625 -52.695312 5.484375 -52.332031 5.390625 -51.9375 C 4.578125 -48.613281 3.828125 -45.289062 3.140625 -41.96875 C 2.453125 -38.65625 2.082031 -35.285156 2.03125 -31.859375 C 2.03125 -31.546875 2.035156 -31.09375 2.046875 -30.5 C 2.054688 -29.90625 2.09375 -29.273438 2.15625 -28.609375 C 2.21875 -27.941406 2.332031 -27.335938 2.5 -26.796875 C 2.675781 -26.265625 2.914062 -25.914062 3.21875 -25.75 C 3.550781 -25.59375 3.960938 -25.597656 4.453125 -25.765625 C 4.941406 -25.941406 5.410156 -26.175781 5.859375 -26.46875 C 6.316406 -26.757812 6.664062 -27.015625 6.90625 -27.234375 C 7.15625 -27.484375 7.394531 -27.765625 7.625 -28.078125 C 7.863281 -28.398438 8.101562 -28.703125 8.34375 -28.984375 C 9.4375 -30.335938 10.367188 -31.71875 11.140625 -33.125 C 11.910156 -34.539062 12.679688 -36.019531 13.453125 -37.5625 C 13.503906 -37.675781 13.625 -37.695312 13.8125 -37.625 C 14 -37.5625 14.066406 -37.472656 14.015625 -37.359375 Z M 3.328125 -56.984375 C 2.535156 -56.984375 1.925781 -57.332031 1.5 -58.03125 C 1.40625 -58.144531 1.328125 -58.300781 1.265625 -58.5 C 1.210938 -58.695312 1.222656 -58.878906 1.296875 -59.046875 C 1.617188 -59.648438 2.0625 -60.273438 2.625 -60.921875 C 3.1875 -61.566406 3.832031 -61.945312 4.5625 -62.0625 C 4.8125 -62.101562 5.125 -62.070312 5.5 -61.96875 C 5.875 -61.863281 6.195312 -61.695312 6.46875 -61.46875 C 6.738281 -61.25 6.859375 -60.96875 6.828125 -60.625 C 6.804688 -60.15625 6.660156 -59.773438 6.390625 -59.484375 C 6.117188 -59.191406 5.832031 -58.867188 5.53125 -58.515625 C 5.394531 -58.359375 5.265625 -58.195312 5.140625 -58.03125 C 5.023438 -57.863281 4.898438 -57.695312 4.765625 -57.53125 C 4.578125 -57.300781 4.359375 -57.148438 4.109375 -57.078125 C 3.867188 -57.015625 3.609375 -56.984375 3.328125 -56.984375 Z M 3.328125 -56.984375 "/></g></g></g><g fill="#84e1ba" fill-opacity="1"><g transform="translate(199.283997, 135.96525)"><g><path d="M -12.296875 -77.265625 C -12.460938 -77.265625 -12.675781 -77.328125 -12.9375 -77.453125 C -13.207031 -77.585938 -13.410156 -77.757812 -13.546875 -77.96875 C -13.691406 -78.175781 -13.660156 -78.375 -13.453125 -78.5625 C -12.679688 -79.257812 -11.785156 -79.847656 -10.765625 -80.328125 C -9.753906 -80.804688 -8.675781 -81.222656 -7.53125 -81.578125 C -6.382812 -81.929688 -5.25 -82.253906 -4.125 -82.546875 C -3.007812 -82.835938 -1.972656 -83.125 -1.015625 -83.40625 C 0.878906 -83.957031 2.773438 -84.503906 4.671875 -85.046875 C 6.578125 -85.585938 8.488281 -86.101562 10.40625 -86.59375 C 10.550781 -87.476562 10.691406 -88.351562 10.828125 -89.21875 C 10.960938 -90.082031 11.113281 -90.945312 11.28125 -91.8125 C 12.3125 -97.925781 13.546875 -104 14.984375 -110.03125 C 16.421875 -116.0625 17.910156 -122.066406 19.453125 -128.046875 C 19.546875 -128.367188 19.769531 -128.507812 20.125 -128.46875 C 20.488281 -128.4375 20.828125 -128.304688 21.140625 -128.078125 C 21.460938 -127.847656 21.578125 -127.566406 21.484375 -127.234375 C 19.921875 -120.710938 18.519531 -114.132812 17.28125 -107.5 C 16.039062 -100.875 14.941406 -94.207031 13.984375 -87.5 C 16.429688 -88.101562 18.878906 -88.679688 21.328125 -89.234375 C 23.785156 -89.785156 26.242188 -90.304688 28.703125 -90.796875 C 30.265625 -91.097656 31.832031 -91.410156 33.40625 -91.734375 C 34.988281 -92.066406 36.570312 -92.332031 38.15625 -92.53125 C 39.75 -92.726562 41.328125 -92.753906 42.890625 -92.609375 C 43.078125 -92.609375 43.328125 -92.515625 43.640625 -92.328125 C 43.960938 -92.148438 44.1875 -91.945312 44.3125 -91.71875 C 44.4375 -91.5 44.328125 -91.296875 43.984375 -91.109375 C 42.617188 -90.453125 41.179688 -89.957031 39.671875 -89.625 C 38.171875 -89.300781 36.648438 -89.039062 35.109375 -88.84375 C 33.566406 -88.644531 32.0625 -88.394531 30.59375 -88.09375 C 28.132812 -87.601562 25.6875 -87.085938 23.25 -86.546875 C 20.8125 -86.015625 18.375 -85.445312 15.9375 -84.84375 C 15.539062 -84.75 15.144531 -84.644531 14.75 -84.53125 C 14.351562 -84.425781 13.957031 -84.328125 13.5625 -84.234375 C 12.863281 -79.054688 12.253906 -73.867188 11.734375 -68.671875 C 11.222656 -63.472656 10.769531 -58.289062 10.375 -53.125 C 9.945312 -47.238281 9.664062 -41.335938 9.53125 -35.421875 C 9.394531 -29.515625 9.507812 -23.609375 9.875 -17.703125 C 10.28125 -11.804688 11.015625 -5.921875 12.078125 -0.046875 C 13.140625 5.828125 14.378906 11.625 15.796875 17.34375 C 15.867188 17.601562 15.804688 17.753906 15.609375 17.796875 C 15.410156 17.847656 15.191406 17.820312 14.953125 17.71875 C 14.722656 17.613281 14.570312 17.476562 14.5 17.3125 C 13.144531 14.457031 11.957031 11.609375 10.9375 8.765625 C 9.925781 5.929688 9.117188 2.960938 8.515625 -0.140625 C 7.953125 -2.960938 7.488281 -5.804688 7.125 -8.671875 C 6.769531 -11.535156 6.484375 -14.40625 6.265625 -17.28125 C 5.828125 -23.375 5.679688 -29.472656 5.828125 -35.578125 C 5.984375 -41.691406 6.285156 -47.796875 6.734375 -53.890625 C 7.078125 -58.796875 7.507812 -63.703125 8.03125 -68.609375 C 8.5625 -73.515625 9.191406 -78.398438 9.921875 -83.265625 C 8.492188 -82.890625 7.078125 -82.5 5.671875 -82.09375 C 4.273438 -81.695312 2.863281 -81.289062 1.4375 -80.875 C -0.03125 -80.457031 -1.523438 -79.96875 -3.046875 -79.40625 C -4.566406 -78.84375 -6.101562 -78.359375 -7.65625 -77.953125 C -9.207031 -77.546875 -10.753906 -77.316406 -12.296875 -77.265625 Z M -12.296875 -77.265625 "/></g></g></g><g fill="#84e1ba" fill-opacity="1"><g transform="translate(218.138205, 135.96525)"><g><path d="M 31.328125 -46.671875 C 28.597656 -45.953125 26.066406 -44.925781 23.734375 -43.59375 C 21.410156 -42.257812 19.242188 -40.691406 17.234375 -38.890625 C 18.660156 -37.347656 19.96875 -35.75 21.15625 -34.09375 C 22.351562 -32.4375 23.332031 -30.664062 24.09375 -28.78125 C 24.851562 -26.90625 25.253906 -24.867188 25.296875 -22.671875 C 25.347656 -20.773438 25.097656 -18.914062 24.546875 -17.09375 C 23.992188 -15.269531 23.226562 -13.539062 22.25 -11.90625 C 21.269531 -10.28125 20.148438 -8.765625 18.890625 -7.359375 C 17.972656 -6.359375 16.945312 -5.359375 15.8125 -4.359375 C 14.6875 -3.367188 13.484375 -2.484375 12.203125 -1.703125 C 10.929688 -0.921875 9.59375 -0.335938 8.1875 0.046875 C 6.789062 0.429688 5.367188 0.53125 3.921875 0.34375 C 1.867188 0.09375 0.269531 -0.46875 -0.875 -1.34375 C -2.019531 -2.21875 -2.789062 -3.3125 -3.1875 -4.625 C -3.582031 -5.9375 -3.695312 -7.367188 -3.53125 -8.921875 C -3.375 -10.472656 -3.023438 -12.082031 -2.484375 -13.75 C -1.953125 -15.425781 -1.304688 -17.054688 -0.546875 -18.640625 C 0.210938 -20.234375 0.984375 -21.710938 1.765625 -23.078125 C 2.546875 -24.441406 3.253906 -25.59375 3.890625 -26.53125 C 5.265625 -28.582031 6.753906 -30.675781 8.359375 -32.8125 C 9.960938 -34.945312 11.695312 -36.960938 13.5625 -38.859375 C 12.1875 -40.359375 10.785156 -41.828125 9.359375 -43.265625 C 7.929688 -44.703125 6.644531 -46.164062 5.5 -47.65625 C 3.863281 -49.757812 2.539062 -52.023438 1.53125 -54.453125 C 0.53125 -56.878906 0.0546875 -59.4375 0.109375 -62.125 C 0.128906 -63.4375 0.285156 -64.769531 0.578125 -66.125 C 0.867188 -67.476562 1.304688 -68.773438 1.890625 -70.015625 C 2.472656 -71.253906 3.222656 -72.363281 4.140625 -73.34375 C 5.066406 -74.320312 6.160156 -75.09375 7.421875 -75.65625 C 8.828125 -76.28125 10.226562 -76.476562 11.625 -76.25 C 13.03125 -76.019531 14.300781 -75.457031 15.4375 -74.5625 C 16.570312 -73.675781 17.441406 -72.554688 18.046875 -71.203125 C 18.742188 -69.640625 19.113281 -68.066406 19.15625 -66.484375 C 19.207031 -64.910156 19.035156 -63.347656 18.640625 -61.796875 C 18.242188 -60.242188 17.734375 -58.710938 17.109375 -57.203125 C 16.492188 -55.703125 15.875 -54.222656 15.25 -52.765625 C 15.15625 -52.535156 14.945312 -52.429688 14.625 -52.453125 C 14.3125 -52.484375 14.035156 -52.597656 13.796875 -52.796875 C 13.566406 -52.992188 13.488281 -53.21875 13.5625 -53.46875 C 14.3125 -55.6875 14.878906 -58.035156 15.265625 -60.515625 C 15.648438 -62.992188 15.703125 -65.410156 15.421875 -67.765625 C 15.347656 -68.441406 15.207031 -69.160156 15 -69.921875 C 14.789062 -70.679688 14.484375 -71.367188 14.078125 -71.984375 C 13.679688 -72.609375 13.15625 -73.046875 12.5 -73.296875 C 11.851562 -73.554688 11.050781 -73.523438 10.09375 -73.203125 C 9.15625 -72.898438 8.304688 -72.320312 7.546875 -71.46875 C 6.785156 -70.613281 6.175781 -69.78125 5.71875 -68.96875 C 4.726562 -67.207031 4.125 -65.398438 3.90625 -63.546875 C 3.6875 -61.691406 3.765625 -59.851562 4.140625 -58.03125 C 4.515625 -56.207031 5.117188 -54.441406 5.953125 -52.734375 C 6.796875 -51.035156 7.800781 -49.445312 8.96875 -47.96875 C 9.945312 -46.726562 11.003906 -45.515625 12.140625 -44.328125 C 13.273438 -43.140625 14.414062 -41.9375 15.5625 -40.71875 C 17.726562 -42.65625 20.070312 -44.253906 22.59375 -45.515625 C 25.125 -46.773438 27.859375 -47.476562 30.796875 -47.625 C 30.960938 -47.644531 31.132812 -47.582031 31.3125 -47.4375 C 31.488281 -47.300781 31.597656 -47.15625 31.640625 -47 C 31.691406 -46.851562 31.585938 -46.742188 31.328125 -46.671875 Z M 21.484375 -21.453125 C 21.691406 -23.523438 21.53125 -25.453125 21 -27.234375 C 20.476562 -29.023438 19.707031 -30.726562 18.6875 -32.34375 C 17.675781 -33.957031 16.53125 -35.507812 15.25 -37 C 14.914062 -36.65625 14.578125 -36.304688 14.234375 -35.953125 C 13.898438 -35.597656 13.570312 -35.222656 13.25 -34.828125 C 10.84375 -32.046875 8.546875 -29.050781 6.359375 -25.84375 C 4.171875 -22.632812 2.390625 -19.285156 1.015625 -15.796875 C 0.710938 -15.003906 0.390625 -14.132812 0.046875 -13.1875 C -0.285156 -12.25 -0.550781 -11.273438 -0.75 -10.265625 C -0.945312 -9.265625 -1.019531 -8.285156 -0.96875 -7.328125 C -0.925781 -6.367188 -0.695312 -5.476562 -0.28125 -4.65625 C 0.207031 -3.726562 0.8125 -3.078125 1.53125 -2.703125 C 2.257812 -2.328125 3.046875 -2.15625 3.890625 -2.1875 C 4.734375 -2.226562 5.585938 -2.40625 6.453125 -2.71875 C 7.316406 -3.03125 8.144531 -3.40625 8.9375 -3.84375 C 9.726562 -4.289062 10.425781 -4.738281 11.03125 -5.1875 C 12.757812 -6.46875 14.378906 -7.945312 15.890625 -9.625 C 17.398438 -11.3125 18.65625 -13.15625 19.65625 -15.15625 C 20.664062 -17.15625 21.273438 -19.253906 21.484375 -21.453125 Z M 21.484375 -21.453125 "/></g></g><g transform="translate(248.592305, 135.96525)"><g><path d="M 24.109375 -34.96875 C 23.078125 -35.457031 22.273438 -36.109375 21.703125 -36.921875 C 21.128906 -37.742188 20.707031 -38.671875 20.4375 -39.703125 C 20.175781 -40.734375 19.992188 -41.8125 19.890625 -42.9375 C 19.785156 -44.070312 19.6875 -45.203125 19.59375 -46.328125 C 18.507812 -44.015625 17.539062 -41.65625 16.6875 -39.25 C 15.84375 -36.84375 14.859375 -34.484375 13.734375 -32.171875 C 13.359375 -31.378906 12.914062 -30.515625 12.40625 -29.578125 C 11.894531 -28.640625 11.3125 -27.710938 10.65625 -26.796875 C 10 -25.890625 9.269531 -25.101562 8.46875 -24.4375 C 7.675781 -23.769531 6.8125 -23.304688 5.875 -23.046875 C 4.945312 -22.796875 3.9375 -22.847656 2.84375 -23.203125 C 1.738281 -23.578125 0.859375 -24.207031 0.203125 -25.09375 C -0.441406 -25.976562 -0.925781 -27.019531 -1.25 -28.21875 C -1.582031 -29.425781 -1.796875 -30.679688 -1.890625 -31.984375 C -1.984375 -33.296875 -2.007812 -34.554688 -1.96875 -35.765625 C -1.9375 -36.984375 -1.890625 -38.039062 -1.828125 -38.9375 C -1.703125 -40.726562 -1.484375 -42.507812 -1.171875 -44.28125 C -0.859375 -46.0625 -0.476562 -47.816406 -0.03125 -49.546875 C 0.15625 -50.316406 0.488281 -50.851562 0.96875 -51.15625 C 1.445312 -51.457031 1.9375 -51.5625 2.4375 -51.46875 C 2.9375 -51.382812 3.332031 -51.148438 3.625 -50.765625 C 3.914062 -50.378906 3.992188 -49.890625 3.859375 -49.296875 C 3.460938 -47.753906 3.101562 -46.210938 2.78125 -44.671875 C 2.46875 -43.128906 2.226562 -41.566406 2.0625 -39.984375 C 1.925781 -38.671875 1.84375 -37.351562 1.8125 -36.03125 C 1.789062 -34.71875 1.84375 -33.40625 1.96875 -32.09375 C 2.007812 -31.675781 2.035156 -31.132812 2.046875 -30.46875 C 2.054688 -29.800781 2.117188 -29.148438 2.234375 -28.515625 C 2.359375 -27.890625 2.5625 -27.414062 2.84375 -27.09375 C 2.84375 -26.15625 3.296875 -25.941406 4.203125 -26.453125 C 4.992188 -26.296875 5.585938 -26.554688 5.984375 -27.234375 C 6.828125 -27.859375 7.570312 -28.660156 8.21875 -29.640625 C 8.863281 -30.617188 9.441406 -31.675781 9.953125 -32.8125 C 10.460938 -33.945312 10.925781 -35.070312 11.34375 -36.1875 C 11.769531 -37.3125 12.160156 -38.34375 12.515625 -39.28125 C 13.378906 -41.519531 14.257812 -43.742188 15.15625 -45.953125 C 16.050781 -48.160156 17.15625 -50.28125 18.46875 -52.3125 C 18.769531 -52.78125 19.164062 -53.007812 19.65625 -53 C 20.144531 -52.988281 20.625 -52.84375 21.09375 -52.5625 C 21.5625 -52.28125 21.890625 -51.941406 22.078125 -51.546875 C 22.679688 -50.304688 23.054688 -49.050781 23.203125 -47.78125 C 23.359375 -46.507812 23.445312 -45.21875 23.46875 -43.90625 C 23.5 -42.59375 23.597656 -41.273438 23.765625 -39.953125 C 23.804688 -39.597656 23.859375 -39.1875 23.921875 -38.71875 C 23.992188 -38.25 24.109375 -37.828125 24.265625 -37.453125 C 24.421875 -37.085938 24.664062 -36.84375 25 -36.71875 C 25.34375 -36.601562 25.816406 -36.722656 26.421875 -37.078125 C 26.722656 -37.234375 27 -37.507812 27.25 -37.90625 C 27.507812 -38.3125 27.75 -38.734375 27.96875 -39.171875 C 28.195312 -39.617188 28.394531 -39.984375 28.5625 -40.265625 C 29.164062 -41.296875 29.734375 -42.332031 30.265625 -43.375 C 30.804688 -44.425781 31.40625 -45.457031 32.0625 -46.46875 C 32.175781 -46.625 32.332031 -46.691406 32.53125 -46.671875 C 32.726562 -46.648438 32.90625 -46.570312 33.0625 -46.4375 C 33.21875 -46.3125 33.269531 -46.15625 33.21875 -45.96875 C 33.101562 -45.414062 32.921875 -44.695312 32.671875 -43.8125 C 32.429688 -42.9375 32.117188 -42.015625 31.734375 -41.046875 C 31.347656 -40.078125 30.894531 -39.148438 30.375 -38.265625 C 29.863281 -37.378906 29.289062 -36.613281 28.65625 -35.96875 C 28.03125 -35.320312 27.335938 -34.894531 26.578125 -34.6875 C 25.816406 -34.476562 24.992188 -34.570312 24.109375 -34.96875 Z M 24.109375 -34.96875 "/></g></g><g transform="translate(280.938835, 135.96525)"><g><path d="M 3.71875 -29.46875 C 3.4375 -31.03125 3.160156 -32.519531 2.890625 -33.9375 C 2.617188 -35.351562 2.472656 -36.84375 2.453125 -38.40625 C 2.378906 -41.320312 2.445312 -44.226562 2.65625 -47.125 C 2.78125 -48.570312 2.910156 -50.015625 3.046875 -51.453125 C 3.191406 -52.890625 3.378906 -54.320312 3.609375 -55.75 C 3.796875 -56.875 3.984375 -57.992188 4.171875 -59.109375 C 4.359375 -60.234375 4.78125 -61.265625 5.4375 -62.203125 C 5.664062 -62.503906 5.96875 -62.613281 6.34375 -62.53125 C 6.71875 -62.445312 7.066406 -62.269531 7.390625 -62 C 7.722656 -61.738281 7.910156 -61.46875 7.953125 -61.1875 C 8.117188 -60.269531 8.132812 -59.320312 8 -58.34375 C 7.875 -57.363281 7.707031 -56.378906 7.5 -55.390625 C 7.289062 -54.410156 7.113281 -53.457031 6.96875 -52.53125 C 6.8125 -51.3125 6.675781 -50.082031 6.5625 -48.84375 C 6.457031 -47.601562 6.375 -46.367188 6.3125 -45.140625 C 6.238281 -43.921875 6.1875 -42.703125 6.15625 -41.484375 C 6.132812 -40.273438 6.140625 -39.050781 6.171875 -37.8125 C 6.234375 -38.207031 6.300781 -38.609375 6.375 -39.015625 C 6.445312 -39.421875 6.519531 -39.828125 6.59375 -40.234375 C 6.914062 -42.003906 7.28125 -43.757812 7.6875 -45.5 C 8.101562 -47.238281 8.601562 -48.960938 9.1875 -50.671875 C 10.144531 -53.398438 11.5 -55.882812 13.25 -58.125 C 15 -60.375 17.160156 -62.1875 19.734375 -63.5625 C 19.773438 -63.613281 19.835938 -63.609375 19.921875 -63.546875 C 20.003906 -63.484375 20.019531 -63.429688 19.96875 -63.390625 C 18.175781 -62.078125 16.640625 -60.519531 15.359375 -58.71875 C 14.085938 -56.925781 13.019531 -55 12.15625 -52.9375 C 11.289062 -50.882812 10.578125 -48.804688 10.015625 -46.703125 C 9.460938 -44.648438 9.007812 -42.566406 8.65625 -40.453125 C 8.300781 -38.335938 7.9375 -36.242188 7.5625 -34.171875 C 7.445312 -33.535156 7.347656 -32.847656 7.265625 -32.109375 C 7.191406 -31.378906 7.039062 -30.695312 6.8125 -30.0625 C 6.59375 -29.4375 6.191406 -28.925781 5.609375 -28.53125 C 5.398438 -28.382812 5.148438 -28.347656 4.859375 -28.421875 C 4.566406 -28.492188 4.3125 -28.632812 4.09375 -28.84375 C 3.882812 -29.050781 3.757812 -29.257812 3.71875 -29.46875 Z M 3.71875 -29.46875 "/></g></g></g><g fill="#84e1ba" fill-opacity="1"><g transform="translate(299.722952, 135.96525)"><g><path d="M 3.71875 -29.46875 C 3.4375 -31.03125 3.160156 -32.519531 2.890625 -33.9375 C 2.617188 -35.351562 2.472656 -36.84375 2.453125 -38.40625 C 2.378906 -41.320312 2.445312 -44.226562 2.65625 -47.125 C 2.78125 -48.570312 2.910156 -50.015625 3.046875 -51.453125 C 3.191406 -52.890625 3.378906 -54.320312 3.609375 -55.75 C 3.796875 -56.875 3.984375 -57.992188 4.171875 -59.109375 C 4.359375 -60.234375 4.78125 -61.265625 5.4375 -62.203125 C 5.664062 -62.503906 5.96875 -62.613281 6.34375 -62.53125 C 6.71875 -62.445312 7.066406 -62.269531 7.390625 -62 C 7.722656 -61.738281 7.910156 -61.46875 7.953125 -61.1875 C 8.117188 -60.269531 8.132812 -59.320312 8 -58.34375 C 7.875 -57.363281 7.707031 -56.378906 7.5 -55.390625 C 7.289062 -54.410156 7.113281 -53.457031 6.96875 -52.53125 C 6.8125 -51.3125 6.675781 -50.082031 6.5625 -48.84375 C 6.457031 -47.601562 6.375 -46.367188 6.3125 -45.140625 C 6.238281 -43.921875 6.1875 -42.703125 6.15625 -41.484375 C 6.132812 -40.273438 6.140625 -39.050781 6.171875 -37.8125 C 6.234375 -38.207031 6.300781 -38.609375 6.375 -39.015625 C 6.445312 -39.421875 6.519531 -39.828125 6.59375 -40.234375 C 6.914062 -42.003906 7.28125 -43.757812 7.6875 -45.5 C 8.101562 -47.238281 8.601562 -48.960938 9.1875 -50.671875 C 10.144531 -53.398438 11.5 -55.882812 13.25 -58.125 C 15 -60.375 17.160156 -62.1875 19.734375 -63.5625 C 19.773438 -63.613281 19.835938 -63.609375 19.921875 -63.546875 C 20.003906 -63.484375 20.019531 -63.429688 19.96875 -63.390625 C 18.175781 -62.078125 16.640625 -60.519531 15.359375 -58.71875 C 14.085938 -56.925781 13.019531 -55 12.15625 -52.9375 C 11.289062 -50.882812 10.578125 -48.804688 10.015625 -46.703125 C 9.460938 -44.648438 9.007812 -42.566406 8.65625 -40.453125 C 8.300781 -38.335938 7.9375 -36.242188 7.5625 -34.171875 C 7.445312 -33.535156 7.347656 -32.847656 7.265625 -32.109375 C 7.191406 -31.378906 7.039062 -30.695312 6.8125 -30.0625 C 6.59375 -29.4375 6.191406 -28.925781 5.609375 -28.53125 C 5.398438 -28.382812 5.148438 -28.347656 4.859375 -28.421875 C 4.566406 -28.492188 4.3125 -28.632812 4.09375 -28.84375 C 3.882812 -29.050781 3.757812 -29.257812 3.71875 -29.46875 Z M 3.71875 -29.46875 "/></g></g><g transform="translate(317.105269, 135.96525)"><g><path d="M 7.84375 -25.9375 C 6.75 -25.8125 5.75 -26.003906 4.84375 -26.515625 C 3.945312 -27.035156 3.171875 -27.722656 2.515625 -28.578125 C 1.867188 -29.429688 1.347656 -30.3125 0.953125 -31.21875 C -0.0976562 -33.582031 -0.65625 -36.035156 -0.71875 -38.578125 C -0.78125 -41.128906 -0.585938 -43.640625 -0.140625 -46.109375 C 0.140625 -47.703125 0.503906 -49.300781 0.953125 -50.90625 C 1.410156 -52.519531 2 -54.082031 2.71875 -55.59375 C 3.445312 -57.101562 4.363281 -58.460938 5.46875 -59.671875 C 6.164062 -60.472656 6.984375 -61.191406 7.921875 -61.828125 C 8.859375 -62.472656 9.84375 -62.890625 10.875 -63.078125 C 11.914062 -63.265625 12.960938 -63.066406 14.015625 -62.484375 C 15.234375 -61.828125 16.019531 -60.96875 16.375 -59.90625 C 16.738281 -58.84375 16.785156 -57.679688 16.515625 -56.421875 C 16.253906 -55.160156 15.765625 -53.882812 15.046875 -52.59375 C 14.335938 -51.3125 13.503906 -50.101562 12.546875 -48.96875 C 11.585938 -47.832031 10.597656 -46.875 9.578125 -46.09375 C 8.566406 -45.3125 7.640625 -44.789062 6.796875 -44.53125 C 6.585938 -44.46875 6.316406 -44.5 5.984375 -44.625 C 5.660156 -44.75 5.410156 -44.925781 5.234375 -45.15625 C 5.054688 -45.394531 5.078125 -45.644531 5.296875 -45.90625 C 6.015625 -46.8125 6.769531 -47.625 7.5625 -48.34375 C 8.363281 -49.070312 9.113281 -49.84375 9.8125 -50.65625 C 10.507812 -51.476562 11.09375 -52.453125 11.5625 -53.578125 C 11.820312 -54.234375 12.109375 -55.003906 12.421875 -55.890625 C 12.734375 -56.773438 12.84375 -57.570312 12.75 -58.28125 C 12.726562 -58.582031 12.691406 -58.875 12.640625 -59.15625 C 12.597656 -59.4375 12.484375 -59.65625 12.296875 -59.8125 C 12.109375 -59.976562 11.78125 -60.015625 11.3125 -59.921875 C 11.0625 -59.867188 10.789062 -59.726562 10.5 -59.5 C 10.207031 -59.269531 9.929688 -59.015625 9.671875 -58.734375 C 9.410156 -58.453125 9.203125 -58.21875 9.046875 -58.03125 C 7.898438 -56.8125 6.925781 -55.40625 6.125 -53.8125 C 5.332031 -52.226562 4.695312 -50.546875 4.21875 -48.765625 C 3.738281 -46.992188 3.398438 -45.210938 3.203125 -43.421875 C 3.003906 -41.640625 2.929688 -39.941406 2.984375 -38.328125 C 3.003906 -37.960938 3.046875 -37.441406 3.109375 -36.765625 C 3.179688 -36.085938 3.289062 -35.335938 3.4375 -34.515625 C 3.59375 -33.703125 3.800781 -32.910156 4.0625 -32.140625 C 4.320312 -31.367188 4.625 -30.703125 4.96875 -30.140625 C 5.320312 -29.578125 5.734375 -29.203125 6.203125 -29.015625 C 6.671875 -28.828125 7.195312 -28.921875 7.78125 -29.296875 C 8.476562 -29.710938 9.066406 -30.273438 9.546875 -30.984375 C 10.023438 -31.703125 10.4375 -32.484375 10.78125 -33.328125 C 11.132812 -34.171875 11.46875 -35.007812 11.78125 -35.84375 C 12.101562 -36.6875 12.441406 -37.445312 12.796875 -38.125 C 14.023438 -40.507812 15.679688 -42.398438 17.765625 -43.796875 C 19.847656 -45.203125 22.242188 -45.914062 24.953125 -45.9375 C 25.046875 -45.9375 25.15625 -45.890625 25.28125 -45.796875 C 25.40625 -45.703125 25.5 -45.601562 25.5625 -45.5 C 25.625 -45.394531 25.570312 -45.320312 25.40625 -45.28125 C 23.8125 -45.019531 22.378906 -44.609375 21.109375 -44.046875 C 19.835938 -43.484375 18.679688 -42.617188 17.640625 -41.453125 C 16.597656 -40.285156 15.625 -38.640625 14.71875 -36.515625 C 14.457031 -35.878906 14.179688 -35.125 13.890625 -34.25 C 13.597656 -33.375 13.273438 -32.472656 12.921875 -31.546875 C 12.578125 -30.628906 12.171875 -29.757812 11.703125 -28.9375 C 11.234375 -28.125 10.679688 -27.441406 10.046875 -26.890625 C 9.421875 -26.347656 8.6875 -26.03125 7.84375 -25.9375 Z M 7.84375 -25.9375 "/></g></g><g transform="translate(341.426496, 135.96525)"><g><path d="M 5.25 18.859375 C 3.6875 14.410156 2.34375 9.976562 1.21875 5.5625 C 0.101562 1.15625 -0.648438 -3.394531 -1.046875 -8.09375 C -1.421875 -12.832031 -1.601562 -17.582031 -1.59375 -22.34375 C -1.582031 -27.113281 -1.4375 -31.875 -1.15625 -36.625 C -1.082031 -37.675781 -1.003906 -38.734375 -0.921875 -39.796875 C -0.847656 -40.859375 -0.765625 -41.925781 -0.671875 -43 C -0.671875 -43 -0.671875 -43.09375 -0.671875 -43.28125 C -0.671875 -43.46875 -0.660156 -43.671875 -0.640625 -43.890625 C -0.628906 -44.109375 -0.59375 -44.253906 -0.53125 -44.328125 C 0.125 -51.171875 1.078125 -57.984375 2.328125 -64.765625 C 3.578125 -71.554688 5.125 -78.257812 6.96875 -84.875 C 7.132812 -85.4375 7.382812 -86.3125 7.71875 -87.5 C 8.0625 -88.6875 8.484375 -90.097656 8.984375 -91.734375 C 9.484375 -93.367188 10.054688 -95.132812 10.703125 -97.03125 C 11.347656 -98.925781 12.054688 -100.835938 12.828125 -102.765625 C 13.597656 -104.691406 14.410156 -106.550781 15.265625 -108.34375 C 16.117188 -110.144531 17.007812 -111.769531 17.9375 -113.21875 C 18.875 -114.664062 19.832031 -115.859375 20.8125 -116.796875 C 21.789062 -117.734375 22.785156 -118.304688 23.796875 -118.515625 C 24.816406 -118.722656 25.832031 -118.460938 26.84375 -117.734375 C 27.539062 -117.242188 28.039062 -116.054688 28.34375 -114.171875 C 28.644531 -112.296875 28.644531 -109.734375 28.34375 -106.484375 C 28.039062 -103.242188 27.351562 -99.328125 26.28125 -94.734375 C 25.207031 -90.140625 23.65625 -84.890625 21.625 -78.984375 C 19.800781 -73.679688 17.445312 -68.425781 14.5625 -63.21875 C 11.675781 -58.007812 8.023438 -52.71875 3.609375 -47.34375 C 3.191406 -43.675781 2.863281 -39.992188 2.625 -36.296875 C 2.394531 -32.609375 2.242188 -28.921875 2.171875 -25.234375 C 2.128906 -21.628906 2.171875 -18.03125 2.296875 -14.4375 C 2.421875 -10.84375 2.660156 -7.242188 3.015625 -3.640625 C 3.410156 0.0976562 3.8125 3.867188 4.21875 7.671875 C 4.625 11.484375 5.320312 15.210938 6.3125 18.859375 C 6.375 19.066406 6.320312 19.1875 6.15625 19.21875 C 6 19.25 5.820312 19.226562 5.625 19.15625 C 5.425781 19.09375 5.300781 18.992188 5.25 18.859375 Z M 7.1875 -69.484375 C 5.738281 -62.734375 4.613281 -55.957031 3.8125 -49.15625 C 7.695312 -53.851562 11.023438 -58.914062 13.796875 -64.34375 C 16.578125 -69.78125 18.953125 -75.394531 20.921875 -81.1875 C 21.953125 -84.175781 22.875 -87.207031 23.6875 -90.28125 C 24.507812 -93.351562 25.257812 -96.441406 25.9375 -99.546875 C 26.375 -101.554688 26.722656 -103.582031 26.984375 -105.625 C 27.242188 -107.675781 27.242188 -109.726562 26.984375 -111.78125 C 26.910156 -112.320312 26.800781 -112.859375 26.65625 -113.390625 C 26.519531 -113.929688 26.332031 -114.390625 26.09375 -114.765625 C 25.863281 -115.140625 25.550781 -115.347656 25.15625 -115.390625 C 24.757812 -115.441406 24.257812 -115.222656 23.65625 -114.734375 C 23.257812 -114.398438 22.890625 -113.960938 22.546875 -113.421875 C 22.210938 -112.890625 21.90625 -112.332031 21.625 -111.75 C 21.34375 -111.164062 21.070312 -110.640625 20.8125 -110.171875 C 18.476562 -106.035156 16.472656 -101.707031 14.796875 -97.1875 C 13.128906 -92.664062 11.6875 -88.066406 10.46875 -83.390625 C 9.257812 -78.722656 8.164062 -74.085938 7.1875 -69.484375 Z M 7.1875 -69.484375 "/></g></g></g><g fill="#ffb86a" fill-opacity="1"><g transform="translate(113.430019, 133.216218)"><g><path d="M 0.140625 -28.484375 C -0.703125 -28.910156 -1.367188 -29.476562 -1.859375 -30.1875 C -2.347656 -30.894531 -2.695312 -31.6875 -2.90625 -32.5625 C -3.113281 -33.445312 -3.226562 -34.347656 -3.25 -35.265625 C -3.28125 -36.191406 -3.257812 -37.078125 -3.1875 -37.921875 C -2.976562 -40.347656 -2.40625 -42.710938 -1.46875 -45.015625 C -0.53125 -47.316406 0.519531 -49.515625 1.6875 -51.609375 C 2.664062 -53.390625 3.789062 -55.097656 5.0625 -56.734375 C 6.332031 -58.367188 7.890625 -59.65625 9.734375 -60.59375 C 10.785156 -61.125 11.894531 -61.519531 13.0625 -61.78125 C 14.238281 -62.039062 15.410156 -62.101562 16.578125 -61.96875 C 17.742188 -61.84375 18.828125 -61.460938 19.828125 -60.828125 C 21.085938 -60.085938 22.015625 -59.300781 22.609375 -58.46875 C 23.210938 -57.632812 23.597656 -56.851562 23.765625 -56.125 C 23.941406 -55.40625 24.015625 -54.816406 23.984375 -54.359375 C 23.953125 -53.910156 23.9375 -53.6875 23.9375 -53.6875 C 23.75 -53.382812 23.429688 -53.28125 22.984375 -53.375 C 22.546875 -53.46875 22.234375 -53.648438 22.046875 -53.921875 C 21.578125 -54.691406 21.128906 -55.46875 20.703125 -56.25 C 20.285156 -57.039062 19.757812 -57.707031 19.125 -58.25 C 18.5 -58.800781 17.648438 -59.113281 16.578125 -59.1875 C 15.285156 -59.300781 14.03125 -59.035156 12.8125 -58.390625 C 11.601562 -57.753906 10.554688 -57.023438 9.671875 -56.203125 C 8.128906 -54.773438 6.828125 -53.097656 5.765625 -51.171875 C 4.703125 -49.242188 3.75 -47.335938 2.90625 -45.453125 C 2.414062 -44.304688 1.972656 -43.132812 1.578125 -41.9375 C 1.179688 -40.75 0.890625 -39.535156 0.703125 -38.296875 C 0.609375 -37.710938 0.539062 -37.128906 0.5 -36.546875 C 0.46875 -35.960938 0.460938 -35.367188 0.484375 -34.765625 C 0.535156 -33.960938 0.722656 -33.289062 1.046875 -32.75 C 1.378906 -32.21875 1.789062 -31.875 2.28125 -31.71875 C 2.90625 -31.53125 3.546875 -31.660156 4.203125 -32.109375 C 4.859375 -32.566406 5.492188 -33.226562 6.109375 -34.09375 C 6.734375 -34.957031 7.3125 -35.890625 7.84375 -36.890625 C 8.382812 -37.898438 8.867188 -38.851562 9.296875 -39.75 C 9.734375 -40.65625 10.09375 -41.363281 10.375 -41.875 C 10.65625 -42.414062 10.972656 -43.054688 11.328125 -43.796875 C 11.691406 -44.546875 12.09375 -45.28125 12.53125 -46 C 12.976562 -46.726562 13.441406 -47.332031 13.921875 -47.8125 C 14.398438 -48.289062 14.890625 -48.507812 15.390625 -48.46875 C 16.578125 -48.394531 17.5 -47.945312 18.15625 -47.125 C 18.8125 -46.3125 19.207031 -45.367188 19.34375 -44.296875 C 19.457031 -43.359375 19.523438 -42.414062 19.546875 -41.46875 C 19.578125 -40.519531 19.625 -39.566406 19.6875 -38.609375 C 19.71875 -38.378906 19.757812 -37.984375 19.8125 -37.421875 C 19.875 -36.859375 19.960938 -36.273438 20.078125 -35.671875 C 20.191406 -35.066406 20.351562 -34.546875 20.5625 -34.109375 C 20.78125 -33.679688 21.050781 -33.46875 21.375 -33.46875 C 21.726562 -33.46875 22.15625 -33.71875 22.65625 -34.21875 C 23.15625 -34.71875 23.671875 -35.320312 24.203125 -36.03125 C 24.742188 -36.75 25.242188 -37.445312 25.703125 -38.125 C 26.160156 -38.800781 26.503906 -39.328125 26.734375 -39.703125 C 27.503906 -40.847656 28.191406 -41.976562 28.796875 -43.09375 C 29.410156 -44.21875 29.972656 -45.421875 30.484375 -46.703125 C 30.535156 -46.828125 30.640625 -46.851562 30.796875 -46.78125 C 30.960938 -46.707031 31.023438 -46.613281 30.984375 -46.5 C 30.796875 -46.007812 30.515625 -45.257812 30.140625 -44.25 C 29.765625 -43.25 29.304688 -42.132812 28.765625 -40.90625 C 28.234375 -39.6875 27.632812 -38.46875 26.96875 -37.25 C 26.300781 -36.03125 25.585938 -34.941406 24.828125 -33.984375 C 24.066406 -33.023438 23.273438 -32.316406 22.453125 -31.859375 C 21.640625 -31.410156 20.8125 -31.328125 19.96875 -31.609375 C 19.132812 -31.890625 18.296875 -32.671875 17.453125 -33.953125 C 16.890625 -34.796875 16.515625 -35.765625 16.328125 -36.859375 C 16.140625 -37.960938 15.988281 -39.015625 15.875 -40.015625 C 15.800781 -40.578125 15.742188 -41.140625 15.703125 -41.703125 C 15.671875 -42.265625 15.644531 -42.835938 15.625 -43.421875 C 15.28125 -42.410156 14.769531 -41.367188 14.09375 -40.296875 C 13.414062 -39.222656 12.816406 -38.265625 12.296875 -37.421875 C 11.734375 -36.484375 11.140625 -35.5625 10.515625 -34.65625 C 9.898438 -33.75 9.253906 -32.863281 8.578125 -32 C 8.085938 -31.34375 7.53125 -30.710938 6.90625 -30.109375 C 6.289062 -29.515625 5.617188 -29.015625 4.890625 -28.609375 C 4.171875 -28.203125 3.414062 -27.96875 2.625 -27.90625 C 1.832031 -27.851562 1.003906 -28.046875 0.140625 -28.484375 Z M 0.140625 -28.484375 "/></g></g><g transform="translate(143.743939, 133.216218)"><g><path d="M 4 -17.734375 C 2.988281 -21.003906 2.203125 -24.359375 1.640625 -27.796875 C 1.085938 -31.242188 0.679688 -34.734375 0.421875 -38.265625 C 0.160156 -41.796875 0 -45.316406 -0.0625 -48.828125 C -0.132812 -52.347656 -0.179688 -55.800781 -0.203125 -59.1875 C -0.203125 -59.8125 -0.191406 -60.898438 -0.171875 -62.453125 C -0.148438 -64.015625 -0.101562 -65.90625 -0.03125 -68.125 C 0.03125 -70.34375 0.140625 -72.773438 0.296875 -75.421875 C 0.453125 -78.078125 0.648438 -80.84375 0.890625 -83.71875 C 1.140625 -86.59375 1.4375 -89.460938 1.78125 -92.328125 C 2.132812 -95.203125 2.554688 -97.960938 3.046875 -100.609375 C 3.535156 -103.265625 4.109375 -105.691406 4.765625 -107.890625 C 5.421875 -110.085938 6.15625 -111.945312 6.96875 -113.46875 C 7.789062 -114.988281 8.710938 -116.0625 9.734375 -116.6875 C 10.765625 -117.320312 11.910156 -117.378906 13.171875 -116.859375 C 14.015625 -116.515625 14.675781 -115.972656 15.15625 -115.234375 C 15.632812 -114.492188 15.988281 -113.65625 16.21875 -112.71875 C 16.457031 -111.789062 16.613281 -110.851562 16.6875 -109.90625 C 16.769531 -108.957031 16.8125 -108.113281 16.8125 -107.375 C 16.863281 -104.6875 16.65625 -101.992188 16.1875 -99.296875 C 15.71875 -96.597656 15.191406 -93.9375 14.609375 -91.3125 C 13.859375 -87.8125 12.984375 -84.242188 11.984375 -80.609375 C 10.984375 -76.984375 9.796875 -73.410156 8.421875 -69.890625 C 7.054688 -66.367188 5.441406 -63.046875 3.578125 -59.921875 C 3.578125 -59.472656 3.578125 -59.007812 3.578125 -58.53125 C 3.578125 -58.050781 3.578125 -57.582031 3.578125 -57.125 C 3.617188 -54.476562 3.695312 -51.832031 3.8125 -49.1875 C 3.9375 -46.550781 4.078125 -43.914062 4.234375 -41.28125 C 4.234375 -41.320312 4.238281 -41.363281 4.25 -41.40625 C 4.269531 -41.457031 4.28125 -41.5 4.28125 -41.53125 C 4.769531 -44.84375 5.503906 -48.101562 6.484375 -51.3125 C 7.460938 -54.53125 8.769531 -57.597656 10.40625 -60.515625 C 10.988281 -61.546875 11.625 -62.5625 12.3125 -63.5625 C 13 -64.570312 13.769531 -65.488281 14.625 -66.3125 C 15.476562 -67.144531 16.429688 -67.816406 17.484375 -68.328125 C 18.535156 -68.847656 19.703125 -69.128906 20.984375 -69.171875 C 22.671875 -69.242188 24.148438 -68.925781 25.421875 -68.21875 C 26.691406 -67.519531 27.742188 -66.554688 28.578125 -65.328125 C 29.410156 -64.109375 29.988281 -62.710938 30.3125 -61.140625 C 30.5 -60.328125 30.648438 -59.5 30.765625 -58.65625 C 30.878906 -57.820312 30.972656 -56.972656 31.046875 -56.109375 C 32.492188 -56.597656 33.960938 -56.941406 35.453125 -57.140625 C 36.953125 -57.335938 38.453125 -57.378906 39.953125 -57.265625 C 40.066406 -57.234375 40.1875 -57.15625 40.3125 -57.03125 C 40.445312 -56.90625 40.421875 -56.816406 40.234375 -56.765625 C 38.660156 -56.347656 37.113281 -55.925781 35.59375 -55.5 C 34.082031 -55.082031 32.601562 -54.570312 31.15625 -53.96875 C 31.195312 -50.550781 30.84375 -47.234375 30.09375 -44.015625 C 29.726562 -42.328125 29.238281 -40.566406 28.625 -38.734375 C 28.019531 -36.898438 27.257812 -35.148438 26.34375 -33.484375 C 25.4375 -31.816406 24.351562 -30.347656 23.09375 -29.078125 C 22.175781 -28.191406 21.09375 -27.570312 19.84375 -27.21875 C 18.59375 -26.875 17.351562 -26.835938 16.125 -27.109375 C 14.90625 -27.378906 13.84375 -28.015625 12.9375 -29.015625 C 12.019531 -30.015625 11.46875 -31.125 11.28125 -32.34375 C 11.09375 -33.5625 11.144531 -34.804688 11.4375 -36.078125 C 11.726562 -37.347656 12.160156 -38.582031 12.734375 -39.78125 C 13.304688 -40.988281 13.894531 -42.0625 14.5 -43 C 16.019531 -45.351562 17.890625 -47.546875 20.109375 -49.578125 C 22.328125 -51.609375 24.75 -53.28125 27.375 -54.59375 C 27.34375 -55.757812 27.265625 -56.992188 27.140625 -58.296875 C 27.015625 -59.609375 26.78125 -60.859375 26.4375 -62.046875 C 26.101562 -63.242188 25.632812 -64.238281 25.03125 -65.03125 C 24.4375 -65.832031 23.671875 -66.304688 22.734375 -66.453125 C 21.804688 -66.609375 20.675781 -66.300781 19.34375 -65.53125 C 18.21875 -64.875 17.21875 -64.015625 16.34375 -62.953125 C 15.46875 -61.890625 14.691406 -60.71875 14.015625 -59.4375 C 13.335938 -58.164062 12.726562 -56.875 12.1875 -55.5625 C 11.65625 -54.257812 11.179688 -53.023438 10.765625 -51.859375 C 9.753906 -49.054688 8.988281 -46.207031 8.46875 -43.3125 C 7.957031 -40.414062 7.503906 -37.492188 7.109375 -34.546875 C 6.878906 -32.609375 6.691406 -30.644531 6.546875 -28.65625 C 6.410156 -26.675781 6.238281 -24.703125 6.03125 -22.734375 C 6.164062 -20.984375 6.234375 -19.234375 6.234375 -17.484375 C 6.253906 -17.109375 6.085938 -16.898438 5.734375 -16.859375 C 5.390625 -16.828125 5.03125 -16.90625 4.65625 -17.09375 C 4.28125 -17.28125 4.0625 -17.492188 4 -17.734375 Z M 27.328125 -51.6875 C 27.328125 -51.757812 27.328125 -51.828125 27.328125 -51.890625 C 27.328125 -51.960938 27.328125 -52.046875 27.328125 -52.140625 C 27.140625 -52.023438 26.941406 -51.898438 26.734375 -51.765625 C 26.523438 -51.640625 26.316406 -51.507812 26.109375 -51.375 C 23.859375 -49.875 21.835938 -48.070312 20.046875 -45.96875 C 18.265625 -43.875 16.910156 -41.539062 15.984375 -38.96875 C 15.835938 -38.59375 15.671875 -38.050781 15.484375 -37.34375 C 15.296875 -36.644531 15.140625 -35.878906 15.015625 -35.046875 C 14.890625 -34.222656 14.84375 -33.425781 14.875 -32.65625 C 14.90625 -31.882812 15.066406 -31.21875 15.359375 -30.65625 C 15.648438 -30.101562 16.125 -29.765625 16.78125 -29.640625 C 17.457031 -29.523438 18.097656 -29.660156 18.703125 -30.046875 C 19.316406 -30.429688 19.878906 -30.941406 20.390625 -31.578125 C 20.910156 -32.222656 21.363281 -32.882812 21.75 -33.5625 C 22.132812 -34.25 22.453125 -34.820312 22.703125 -35.28125 C 24.085938 -37.78125 25.164062 -40.425781 25.9375 -43.21875 C 26.707031 -46.007812 27.171875 -48.832031 27.328125 -51.6875 Z M 8.03125 -106.875 C 7.5625 -105.3125 7.164062 -103.722656 6.84375 -102.109375 C 6.53125 -100.492188 6.257812 -98.882812 6.03125 -97.28125 C 5.300781 -92.132812 4.742188 -86.957031 4.359375 -81.75 C 3.972656 -76.539062 3.722656 -71.332031 3.609375 -66.125 C 4.453125 -67.925781 5.28125 -69.726562 6.09375 -71.53125 C 6.914062 -73.34375 7.664062 -75.1875 8.34375 -77.0625 C 10.488281 -83.101562 12.15625 -89.269531 13.34375 -95.5625 C 13.414062 -95.882812 13.523438 -96.492188 13.671875 -97.390625 C 13.828125 -98.296875 13.988281 -99.367188 14.15625 -100.609375 C 14.320312 -101.847656 14.460938 -103.15625 14.578125 -104.53125 C 14.691406 -105.90625 14.75 -107.242188 14.75 -108.546875 C 14.75 -109.859375 14.660156 -111.035156 14.484375 -112.078125 C 14.316406 -113.117188 14.015625 -113.921875 13.578125 -114.484375 C 13.148438 -115.046875 12.550781 -115.253906 11.78125 -115.109375 C 11.375 -115.035156 11 -114.757812 10.65625 -114.28125 C 10.320312 -113.8125 10.007812 -113.21875 9.71875 -112.5 C 9.425781 -111.789062 9.171875 -111.0625 8.953125 -110.3125 C 8.734375 -109.5625 8.546875 -108.875 8.390625 -108.25 C 8.242188 -107.632812 8.125 -107.175781 8.03125 -106.875 Z M 8.03125 -106.875 "/></g></g></g><g fill="#ffb86a" fill-opacity="1"><g transform="translate(182.819108, 133.216218)"><g><path d="M 14.015625 -37.359375 C 13.847656 -36.773438 13.578125 -35.984375 13.203125 -34.984375 C 12.835938 -33.992188 12.382812 -32.921875 11.84375 -31.765625 C 11.300781 -30.609375 10.695312 -29.46875 10.03125 -28.34375 C 9.375 -27.226562 8.648438 -26.222656 7.859375 -25.328125 C 7.078125 -24.441406 6.265625 -23.773438 5.421875 -23.328125 C 4.585938 -22.890625 3.722656 -22.78125 2.828125 -23 C 1.941406 -23.226562 1.054688 -23.890625 0.171875 -24.984375 C -0.503906 -25.828125 -0.988281 -26.785156 -1.28125 -27.859375 C -1.570312 -28.929688 -1.734375 -30.050781 -1.765625 -31.21875 C -1.804688 -32.382812 -1.769531 -33.546875 -1.65625 -34.703125 C -1.550781 -35.859375 -1.453125 -36.929688 -1.359375 -37.921875 C -1.085938 -40.515625 -0.691406 -43.117188 -0.171875 -45.734375 C 0.335938 -48.347656 1.050781 -50.878906 1.96875 -53.328125 C 2.101562 -53.722656 2.375 -53.941406 2.78125 -53.984375 C 3.195312 -54.035156 3.617188 -53.972656 4.046875 -53.796875 C 4.484375 -53.628906 4.835938 -53.375 5.109375 -53.03125 C 5.390625 -52.695312 5.484375 -52.332031 5.390625 -51.9375 C 4.578125 -48.613281 3.828125 -45.289062 3.140625 -41.96875 C 2.453125 -38.65625 2.082031 -35.285156 2.03125 -31.859375 C 2.03125 -31.546875 2.035156 -31.09375 2.046875 -30.5 C 2.054688 -29.90625 2.09375 -29.273438 2.15625 -28.609375 C 2.21875 -27.941406 2.332031 -27.335938 2.5 -26.796875 C 2.675781 -26.265625 2.914062 -25.914062 3.21875 -25.75 C 3.550781 -25.59375 3.960938 -25.597656 4.453125 -25.765625 C 4.941406 -25.941406 5.410156 -26.175781 5.859375 -26.46875 C 6.316406 -26.757812 6.664062 -27.015625 6.90625 -27.234375 C 7.15625 -27.484375 7.394531 -27.765625 7.625 -28.078125 C 7.863281 -28.398438 8.101562 -28.703125 8.34375 -28.984375 C 9.4375 -30.335938 10.367188 -31.71875 11.140625 -33.125 C 11.910156 -34.539062 12.679688 -36.019531 13.453125 -37.5625 C 13.503906 -37.675781 13.625 -37.695312 13.8125 -37.625 C 14 -37.5625 14.066406 -37.472656 14.015625 -37.359375 Z M 3.328125 -56.984375 C 2.535156 -56.984375 1.925781 -57.332031 1.5 -58.03125 C 1.40625 -58.144531 1.328125 -58.300781 1.265625 -58.5 C 1.210938 -58.695312 1.222656 -58.878906 1.296875 -59.046875 C 1.617188 -59.648438 2.0625 -60.273438 2.625 -60.921875 C 3.1875 -61.566406 3.832031 -61.945312 4.5625 -62.0625 C 4.8125 -62.101562 5.125 -62.070312 5.5 -61.96875 C 5.875 -61.863281 6.195312 -61.695312 6.46875 -61.46875 C 6.738281 -61.25 6.859375 -60.96875 6.828125 -60.625 C 6.804688 -60.15625 6.660156 -59.773438 6.390625 -59.484375 C 6.117188 -59.191406 5.832031 -58.867188 5.53125 -58.515625 C 5.394531 -58.359375 5.265625 -58.195312 5.140625 -58.03125 C 5.023438 -57.863281 4.898438 -57.695312 4.765625 -57.53125 C 4.578125 -57.300781 4.359375 -57.148438 4.109375 -57.078125 C 3.867188 -57.015625 3.609375 -56.984375 3.328125 -56.984375 Z M 3.328125 -56.984375 "/></g></g></g><g fill="#ffb86a" fill-opacity="1"><g transform="translate(196.977286, 133.216218)"><g><path d="M -12.296875 -77.265625 C -12.460938 -77.265625 -12.675781 -77.328125 -12.9375 -77.453125 C -13.207031 -77.585938 -13.410156 -77.757812 -13.546875 -77.96875 C -13.691406 -78.175781 -13.660156 -78.375 -13.453125 -78.5625 C -12.679688 -79.257812 -11.785156 -79.847656 -10.765625 -80.328125 C -9.753906 -80.804688 -8.675781 -81.222656 -7.53125 -81.578125 C -6.382812 -81.929688 -5.25 -82.253906 -4.125 -82.546875 C -3.007812 -82.835938 -1.972656 -83.125 -1.015625 -83.40625 C 0.878906 -83.957031 2.773438 -84.503906 4.671875 -85.046875 C 6.578125 -85.585938 8.488281 -86.101562 10.40625 -86.59375 C 10.550781 -87.476562 10.691406 -88.351562 10.828125 -89.21875 C 10.960938 -90.082031 11.113281 -90.945312 11.28125 -91.8125 C 12.3125 -97.925781 13.546875 -104 14.984375 -110.03125 C 16.421875 -116.0625 17.910156 -122.066406 19.453125 -128.046875 C 19.546875 -128.367188 19.769531 -128.507812 20.125 -128.46875 C 20.488281 -128.4375 20.828125 -128.304688 21.140625 -128.078125 C 21.460938 -127.847656 21.578125 -127.566406 21.484375 -127.234375 C 19.921875 -120.710938 18.519531 -114.132812 17.28125 -107.5 C 16.039062 -100.875 14.941406 -94.207031 13.984375 -87.5 C 16.429688 -88.101562 18.878906 -88.679688 21.328125 -89.234375 C 23.785156 -89.785156 26.242188 -90.304688 28.703125 -90.796875 C 30.265625 -91.097656 31.832031 -91.410156 33.40625 -91.734375 C 34.988281 -92.066406 36.570312 -92.332031 38.15625 -92.53125 C 39.75 -92.726562 41.328125 -92.753906 42.890625 -92.609375 C 43.078125 -92.609375 43.328125 -92.515625 43.640625 -92.328125 C 43.960938 -92.148438 44.1875 -91.945312 44.3125 -91.71875 C 44.4375 -91.5 44.328125 -91.296875 43.984375 -91.109375 C 42.617188 -90.453125 41.179688 -89.957031 39.671875 -89.625 C 38.171875 -89.300781 36.648438 -89.039062 35.109375 -88.84375 C 33.566406 -88.644531 32.0625 -88.394531 30.59375 -88.09375 C 28.132812 -87.601562 25.6875 -87.085938 23.25 -86.546875 C 20.8125 -86.015625 18.375 -85.445312 15.9375 -84.84375 C 15.539062 -84.75 15.144531 -84.644531 14.75 -84.53125 C 14.351562 -84.425781 13.957031 -84.328125 13.5625 -84.234375 C 12.863281 -79.054688 12.253906 -73.867188 11.734375 -68.671875 C 11.222656 -63.472656 10.769531 -58.289062 10.375 -53.125 C 9.945312 -47.238281 9.664062 -41.335938 9.53125 -35.421875 C 9.394531 -29.515625 9.507812 -23.609375 9.875 -17.703125 C 10.28125 -11.804688 11.015625 -5.921875 12.078125 -0.046875 C 13.140625 5.828125 14.378906 11.625 15.796875 17.34375 C 15.867188 17.601562 15.804688 17.753906 15.609375 17.796875 C 15.410156 17.847656 15.191406 17.820312 14.953125 17.71875 C 14.722656 17.613281 14.570312 17.476562 14.5 17.3125 C 13.144531 14.457031 11.957031 11.609375 10.9375 8.765625 C 9.925781 5.929688 9.117188 2.960938 8.515625 -0.140625 C 7.953125 -2.960938 7.488281 -5.804688 7.125 -8.671875 C 6.769531 -11.535156 6.484375 -14.40625 6.265625 -17.28125 C 5.828125 -23.375 5.679688 -29.472656 5.828125 -35.578125 C 5.984375 -41.691406 6.285156 -47.796875 6.734375 -53.890625 C 7.078125 -58.796875 7.507812 -63.703125 8.03125 -68.609375 C 8.5625 -73.515625 9.191406 -78.398438 9.921875 -83.265625 C 8.492188 -82.890625 7.078125 -82.5 5.671875 -82.09375 C 4.273438 -81.695312 2.863281 -81.289062 1.4375 -80.875 C -0.03125 -80.457031 -1.523438 -79.96875 -3.046875 -79.40625 C -4.566406 -78.84375 -6.101562 -78.359375 -7.65625 -77.953125 C -9.207031 -77.546875 -10.753906 -77.316406 -12.296875 -77.265625 Z M -12.296875 -77.265625 "/></g></g></g><g fill="#ffb86a" fill-opacity="1"><g transform="translate(215.831493, 133.216218)"><g><path d="M 31.328125 -46.671875 C 28.597656 -45.953125 26.066406 -44.925781 23.734375 -43.59375 C 21.410156 -42.257812 19.242188 -40.691406 17.234375 -38.890625 C 18.660156 -37.347656 19.96875 -35.75 21.15625 -34.09375 C 22.351562 -32.4375 23.332031 -30.664062 24.09375 -28.78125 C 24.851562 -26.90625 25.253906 -24.867188 25.296875 -22.671875 C 25.347656 -20.773438 25.097656 -18.914062 24.546875 -17.09375 C 23.992188 -15.269531 23.226562 -13.539062 22.25 -11.90625 C 21.269531 -10.28125 20.148438 -8.765625 18.890625 -7.359375 C 17.972656 -6.359375 16.945312 -5.359375 15.8125 -4.359375 C 14.6875 -3.367188 13.484375 -2.484375 12.203125 -1.703125 C 10.929688 -0.921875 9.59375 -0.335938 8.1875 0.046875 C 6.789062 0.429688 5.367188 0.53125 3.921875 0.34375 C 1.867188 0.09375 0.269531 -0.46875 -0.875 -1.34375 C -2.019531 -2.21875 -2.789062 -3.3125 -3.1875 -4.625 C -3.582031 -5.9375 -3.695312 -7.367188 -3.53125 -8.921875 C -3.375 -10.472656 -3.023438 -12.082031 -2.484375 -13.75 C -1.953125 -15.425781 -1.304688 -17.054688 -0.546875 -18.640625 C 0.210938 -20.234375 0.984375 -21.710938 1.765625 -23.078125 C 2.546875 -24.441406 3.253906 -25.59375 3.890625 -26.53125 C 5.265625 -28.582031 6.753906 -30.675781 8.359375 -32.8125 C 9.960938 -34.945312 11.695312 -36.960938 13.5625 -38.859375 C 12.1875 -40.359375 10.785156 -41.828125 9.359375 -43.265625 C 7.929688 -44.703125 6.644531 -46.164062 5.5 -47.65625 C 3.863281 -49.757812 2.539062 -52.023438 1.53125 -54.453125 C 0.53125 -56.878906 0.0546875 -59.4375 0.109375 -62.125 C 0.128906 -63.4375 0.285156 -64.769531 0.578125 -66.125 C 0.867188 -67.476562 1.304688 -68.773438 1.890625 -70.015625 C 2.472656 -71.253906 3.222656 -72.363281 4.140625 -73.34375 C 5.066406 -74.320312 6.160156 -75.09375 7.421875 -75.65625 C 8.828125 -76.28125 10.226562 -76.476562 11.625 -76.25 C 13.03125 -76.019531 14.300781 -75.457031 15.4375 -74.5625 C 16.570312 -73.675781 17.441406 -72.554688 18.046875 -71.203125 C 18.742188 -69.640625 19.113281 -68.066406 19.15625 -66.484375 C 19.207031 -64.910156 19.035156 -63.347656 18.640625 -61.796875 C 18.242188 -60.242188 17.734375 -58.710938 17.109375 -57.203125 C 16.492188 -55.703125 15.875 -54.222656 15.25 -52.765625 C 15.15625 -52.535156 14.945312 -52.429688 14.625 -52.453125 C 14.3125 -52.484375 14.035156 -52.597656 13.796875 -52.796875 C 13.566406 -52.992188 13.488281 -53.21875 13.5625 -53.46875 C 14.3125 -55.6875 14.878906 -58.035156 15.265625 -60.515625 C 15.648438 -62.992188 15.703125 -65.410156 15.421875 -67.765625 C 15.347656 -68.441406 15.207031 -69.160156 15 -69.921875 C 14.789062 -70.679688 14.484375 -71.367188 14.078125 -71.984375 C 13.679688 -72.609375 13.15625 -73.046875 12.5 -73.296875 C 11.851562 -73.554688 11.050781 -73.523438 10.09375 -73.203125 C 9.15625 -72.898438 8.304688 -72.320312 7.546875 -71.46875 C 6.785156 -70.613281 6.175781 -69.78125 5.71875 -68.96875 C 4.726562 -67.207031 4.125 -65.398438 3.90625 -63.546875 C 3.6875 -61.691406 3.765625 -59.851562 4.140625 -58.03125 C 4.515625 -56.207031 5.117188 -54.441406 5.953125 -52.734375 C 6.796875 -51.035156 7.800781 -49.445312 8.96875 -47.96875 C 9.945312 -46.726562 11.003906 -45.515625 12.140625 -44.328125 C 13.273438 -43.140625 14.414062 -41.9375 15.5625 -40.71875 C 17.726562 -42.65625 20.070312 -44.253906 22.59375 -45.515625 C 25.125 -46.773438 27.859375 -47.476562 30.796875 -47.625 C 30.960938 -47.644531 31.132812 -47.582031 31.3125 -47.4375 C 31.488281 -47.300781 31.597656 -47.15625 31.640625 -47 C 31.691406 -46.851562 31.585938 -46.742188 31.328125 -46.671875 Z M 21.484375 -21.453125 C 21.691406 -23.523438 21.53125 -25.453125 21 -27.234375 C 20.476562 -29.023438 19.707031 -30.726562 18.6875 -32.34375 C 17.675781 -33.957031 16.53125 -35.507812 15.25 -37 C 14.914062 -36.65625 14.578125 -36.304688 14.234375 -35.953125 C 13.898438 -35.597656 13.570312 -35.222656 13.25 -34.828125 C 10.84375 -32.046875 8.546875 -29.050781 6.359375 -25.84375 C 4.171875 -22.632812 2.390625 -19.285156 1.015625 -15.796875 C 0.710938 -15.003906 0.390625 -14.132812 0.046875 -13.1875 C -0.285156 -12.25 -0.550781 -11.273438 -0.75 -10.265625 C -0.945312 -9.265625 -1.019531 -8.285156 -0.96875 -7.328125 C -0.925781 -6.367188 -0.695312 -5.476562 -0.28125 -4.65625 C 0.207031 -3.726562 0.8125 -3.078125 1.53125 -2.703125 C 2.257812 -2.328125 3.046875 -2.15625 3.890625 -2.1875 C 4.734375 -2.226562 5.585938 -2.40625 6.453125 -2.71875 C 7.316406 -3.03125 8.144531 -3.40625 8.9375 -3.84375 C 9.726562 -4.289062 10.425781 -4.738281 11.03125 -5.1875 C 12.757812 -6.46875 14.378906 -7.945312 15.890625 -9.625 C 17.398438 -11.3125 18.65625 -13.15625 19.65625 -15.15625 C 20.664062 -17.15625 21.273438 -19.253906 21.484375 -21.453125 Z M 21.484375 -21.453125 "/></g></g><g transform="translate(246.285594, 133.216218)"><g><path d="M 24.109375 -34.96875 C 23.078125 -35.457031 22.273438 -36.109375 21.703125 -36.921875 C 21.128906 -37.742188 20.707031 -38.671875 20.4375 -39.703125 C 20.175781 -40.734375 19.992188 -41.8125 19.890625 -42.9375 C 19.785156 -44.070312 19.6875 -45.203125 19.59375 -46.328125 C 18.507812 -44.015625 17.539062 -41.65625 16.6875 -39.25 C 15.84375 -36.84375 14.859375 -34.484375 13.734375 -32.171875 C 13.359375 -31.378906 12.914062 -30.515625 12.40625 -29.578125 C 11.894531 -28.640625 11.3125 -27.710938 10.65625 -26.796875 C 10 -25.890625 9.269531 -25.101562 8.46875 -24.4375 C 7.675781 -23.769531 6.8125 -23.304688 5.875 -23.046875 C 4.945312 -22.796875 3.9375 -22.847656 2.84375 -23.203125 C 1.738281 -23.578125 0.859375 -24.207031 0.203125 -25.09375 C -0.441406 -25.976562 -0.925781 -27.019531 -1.25 -28.21875 C -1.582031 -29.425781 -1.796875 -30.679688 -1.890625 -31.984375 C -1.984375 -33.296875 -2.007812 -34.554688 -1.96875 -35.765625 C -1.9375 -36.984375 -1.890625 -38.039062 -1.828125 -38.9375 C -1.703125 -40.726562 -1.484375 -42.507812 -1.171875 -44.28125 C -0.859375 -46.0625 -0.476562 -47.816406 -0.03125 -49.546875 C 0.15625 -50.316406 0.488281 -50.851562 0.96875 -51.15625 C 1.445312 -51.457031 1.9375 -51.5625 2.4375 -51.46875 C 2.9375 -51.382812 3.332031 -51.148438 3.625 -50.765625 C 3.914062 -50.378906 3.992188 -49.890625 3.859375 -49.296875 C 3.460938 -47.753906 3.101562 -46.210938 2.78125 -44.671875 C 2.46875 -43.128906 2.226562 -41.566406 2.0625 -39.984375 C 1.925781 -38.671875 1.84375 -37.351562 1.8125 -36.03125 C 1.789062 -34.71875 1.84375 -33.40625 1.96875 -32.09375 C 2.007812 -31.675781 2.035156 -31.132812 2.046875 -30.46875 C 2.054688 -29.800781 2.117188 -29.148438 2.234375 -28.515625 C 2.359375 -27.890625 2.5625 -27.414062 2.84375 -27.09375 C 2.84375 -26.15625 3.296875 -25.941406 4.203125 -26.453125 C 4.992188 -26.296875 5.585938 -26.554688 5.984375 -27.234375 C 6.828125 -27.859375 7.570312 -28.660156 8.21875 -29.640625 C 8.863281 -30.617188 9.441406 -31.675781 9.953125 -32.8125 C 10.460938 -33.945312 10.925781 -35.070312 11.34375 -36.1875 C 11.769531 -37.3125 12.160156 -38.34375 12.515625 -39.28125 C 13.378906 -41.519531 14.257812 -43.742188 15.15625 -45.953125 C 16.050781 -48.160156 17.15625 -50.28125 18.46875 -52.3125 C 18.769531 -52.78125 19.164062 -53.007812 19.65625 -53 C 20.144531 -52.988281 20.625 -52.84375 21.09375 -52.5625 C 21.5625 -52.28125 21.890625 -51.941406 22.078125 -51.546875 C 22.679688 -50.304688 23.054688 -49.050781 23.203125 -47.78125 C 23.359375 -46.507812 23.445312 -45.21875 23.46875 -43.90625 C 23.5 -42.59375 23.597656 -41.273438 23.765625 -39.953125 C 23.804688 -39.597656 23.859375 -39.1875 23.921875 -38.71875 C 23.992188 -38.25 24.109375 -37.828125 24.265625 -37.453125 C 24.421875 -37.085938 24.664062 -36.84375 25 -36.71875 C 25.34375 -36.601562 25.816406 -36.722656 26.421875 -37.078125 C 26.722656 -37.234375 27 -37.507812 27.25 -37.90625 C 27.507812 -38.3125 27.75 -38.734375 27.96875 -39.171875 C 28.195312 -39.617188 28.394531 -39.984375 28.5625 -40.265625 C 29.164062 -41.296875 29.734375 -42.332031 30.265625 -43.375 C 30.804688 -44.425781 31.40625 -45.457031 32.0625 -46.46875 C 32.175781 -46.625 32.332031 -46.691406 32.53125 -46.671875 C 32.726562 -46.648438 32.90625 -46.570312 33.0625 -46.4375 C 33.21875 -46.3125 33.269531 -46.15625 33.21875 -45.96875 C 33.101562 -45.414062 32.921875 -44.695312 32.671875 -43.8125 C 32.429688 -42.9375 32.117188 -42.015625 31.734375 -41.046875 C 31.347656 -40.078125 30.894531 -39.148438 30.375 -38.265625 C 29.863281 -37.378906 29.289062 -36.613281 28.65625 -35.96875 C 28.03125 -35.320312 27.335938 -34.894531 26.578125 -34.6875 C 25.816406 -34.476562 24.992188 -34.570312 24.109375 -34.96875 Z M 24.109375 -34.96875 "/></g></g><g transform="translate(278.632123, 133.216218)"><g><path d="M 3.71875 -29.46875 C 3.4375 -31.03125 3.160156 -32.519531 2.890625 -33.9375 C 2.617188 -35.351562 2.472656 -36.84375 2.453125 -38.40625 C 2.378906 -41.320312 2.445312 -44.226562 2.65625 -47.125 C 2.78125 -48.570312 2.910156 -50.015625 3.046875 -51.453125 C 3.191406 -52.890625 3.378906 -54.320312 3.609375 -55.75 C 3.796875 -56.875 3.984375 -57.992188 4.171875 -59.109375 C 4.359375 -60.234375 4.78125 -61.265625 5.4375 -62.203125 C 5.664062 -62.503906 5.96875 -62.613281 6.34375 -62.53125 C 6.71875 -62.445312 7.066406 -62.269531 7.390625 -62 C 7.722656 -61.738281 7.910156 -61.46875 7.953125 -61.1875 C 8.117188 -60.269531 8.132812 -59.320312 8 -58.34375 C 7.875 -57.363281 7.707031 -56.378906 7.5 -55.390625 C 7.289062 -54.410156 7.113281 -53.457031 6.96875 -52.53125 C 6.8125 -51.3125 6.675781 -50.082031 6.5625 -48.84375 C 6.457031 -47.601562 6.375 -46.367188 6.3125 -45.140625 C 6.238281 -43.921875 6.1875 -42.703125 6.15625 -41.484375 C 6.132812 -40.273438 6.140625 -39.050781 6.171875 -37.8125 C 6.234375 -38.207031 6.300781 -38.609375 6.375 -39.015625 C 6.445312 -39.421875 6.519531 -39.828125 6.59375 -40.234375 C 6.914062 -42.003906 7.28125 -43.757812 7.6875 -45.5 C 8.101562 -47.238281 8.601562 -48.960938 9.1875 -50.671875 C 10.144531 -53.398438 11.5 -55.882812 13.25 -58.125 C 15 -60.375 17.160156 -62.1875 19.734375 -63.5625 C 19.773438 -63.613281 19.835938 -63.609375 19.921875 -63.546875 C 20.003906 -63.484375 20.019531 -63.429688 19.96875 -63.390625 C 18.175781 -62.078125 16.640625 -60.519531 15.359375 -58.71875 C 14.085938 -56.925781 13.019531 -55 12.15625 -52.9375 C 11.289062 -50.882812 10.578125 -48.804688 10.015625 -46.703125 C 9.460938 -44.648438 9.007812 -42.566406 8.65625 -40.453125 C 8.300781 -38.335938 7.9375 -36.242188 7.5625 -34.171875 C 7.445312 -33.535156 7.347656 -32.847656 7.265625 -32.109375 C 7.191406 -31.378906 7.039062 -30.695312 6.8125 -30.0625 C 6.59375 -29.4375 6.191406 -28.925781 5.609375 -28.53125 C 5.398438 -28.382812 5.148438 -28.347656 4.859375 -28.421875 C 4.566406 -28.492188 4.3125 -28.632812 4.09375 -28.84375 C 3.882812 -29.050781 3.757812 -29.257812 3.71875 -29.46875 Z M 3.71875 -29.46875 "/></g></g></g><g fill="#ffb86a" fill-opacity="1"><g transform="translate(297.41624, 133.216218)"><g><path d="M 3.71875 -29.46875 C 3.4375 -31.03125 3.160156 -32.519531 2.890625 -33.9375 C 2.617188 -35.351562 2.472656 -36.84375 2.453125 -38.40625 C 2.378906 -41.320312 2.445312 -44.226562 2.65625 -47.125 C 2.78125 -48.570312 2.910156 -50.015625 3.046875 -51.453125 C 3.191406 -52.890625 3.378906 -54.320312 3.609375 -55.75 C 3.796875 -56.875 3.984375 -57.992188 4.171875 -59.109375 C 4.359375 -60.234375 4.78125 -61.265625 5.4375 -62.203125 C 5.664062 -62.503906 5.96875 -62.613281 6.34375 -62.53125 C 6.71875 -62.445312 7.066406 -62.269531 7.390625 -62 C 7.722656 -61.738281 7.910156 -61.46875 7.953125 -61.1875 C 8.117188 -60.269531 8.132812 -59.320312 8 -58.34375 C 7.875 -57.363281 7.707031 -56.378906 7.5 -55.390625 C 7.289062 -54.410156 7.113281 -53.457031 6.96875 -52.53125 C 6.8125 -51.3125 6.675781 -50.082031 6.5625 -48.84375 C 6.457031 -47.601562 6.375 -46.367188 6.3125 -45.140625 C 6.238281 -43.921875 6.1875 -42.703125 6.15625 -41.484375 C 6.132812 -40.273438 6.140625 -39.050781 6.171875 -37.8125 C 6.234375 -38.207031 6.300781 -38.609375 6.375 -39.015625 C 6.445312 -39.421875 6.519531 -39.828125 6.59375 -40.234375 C 6.914062 -42.003906 7.28125 -43.757812 7.6875 -45.5 C 8.101562 -47.238281 8.601562 -48.960938 9.1875 -50.671875 C 10.144531 -53.398438 11.5 -55.882812 13.25 -58.125 C 15 -60.375 17.160156 -62.1875 19.734375 -63.5625 C 19.773438 -63.613281 19.835938 -63.609375 19.921875 -63.546875 C 20.003906 -63.484375 20.019531 -63.429688 19.96875 -63.390625 C 18.175781 -62.078125 16.640625 -60.519531 15.359375 -58.71875 C 14.085938 -56.925781 13.019531 -55 12.15625 -52.9375 C 11.289062 -50.882812 10.578125 -48.804688 10.015625 -46.703125 C 9.460938 -44.648438 9.007812 -42.566406 8.65625 -40.453125 C 8.300781 -38.335938 7.9375 -36.242188 7.5625 -34.171875 C 7.445312 -33.535156 7.347656 -32.847656 7.265625 -32.109375 C 7.191406 -31.378906 7.039062 -30.695312 6.8125 -30.0625 C 6.59375 -29.4375 6.191406 -28.925781 5.609375 -28.53125 C 5.398438 -28.382812 5.148438 -28.347656 4.859375 -28.421875 C 4.566406 -28.492188 4.3125 -28.632812 4.09375 -28.84375 C 3.882812 -29.050781 3.757812 -29.257812 3.71875 -29.46875 Z M 3.71875 -29.46875 "/></g></g><g transform="translate(314.798558, 133.216218)"><g><path d="M 7.84375 -25.9375 C 6.75 -25.8125 5.75 -26.003906 4.84375 -26.515625 C 3.945312 -27.035156 3.171875 -27.722656 2.515625 -28.578125 C 1.867188 -29.429688 1.347656 -30.3125 0.953125 -31.21875 C -0.0976562 -33.582031 -0.65625 -36.035156 -0.71875 -38.578125 C -0.78125 -41.128906 -0.585938 -43.640625 -0.140625 -46.109375 C 0.140625 -47.703125 0.503906 -49.300781 0.953125 -50.90625 C 1.410156 -52.519531 2 -54.082031 2.71875 -55.59375 C 3.445312 -57.101562 4.363281 -58.460938 5.46875 -59.671875 C 6.164062 -60.472656 6.984375 -61.191406 7.921875 -61.828125 C 8.859375 -62.472656 9.84375 -62.890625 10.875 -63.078125 C 11.914062 -63.265625 12.960938 -63.066406 14.015625 -62.484375 C 15.234375 -61.828125 16.019531 -60.96875 16.375 -59.90625 C 16.738281 -58.84375 16.785156 -57.679688 16.515625 -56.421875 C 16.253906 -55.160156 15.765625 -53.882812 15.046875 -52.59375 C 14.335938 -51.3125 13.503906 -50.101562 12.546875 -48.96875 C 11.585938 -47.832031 10.597656 -46.875 9.578125 -46.09375 C 8.566406 -45.3125 7.640625 -44.789062 6.796875 -44.53125 C 6.585938 -44.46875 6.316406 -44.5 5.984375 -44.625 C 5.660156 -44.75 5.410156 -44.925781 5.234375 -45.15625 C 5.054688 -45.394531 5.078125 -45.644531 5.296875 -45.90625 C 6.015625 -46.8125 6.769531 -47.625 7.5625 -48.34375 C 8.363281 -49.070312 9.113281 -49.84375 9.8125 -50.65625 C 10.507812 -51.476562 11.09375 -52.453125 11.5625 -53.578125 C 11.820312 -54.234375 12.109375 -55.003906 12.421875 -55.890625 C 12.734375 -56.773438 12.84375 -57.570312 12.75 -58.28125 C 12.726562 -58.582031 12.691406 -58.875 12.640625 -59.15625 C 12.597656 -59.4375 12.484375 -59.65625 12.296875 -59.8125 C 12.109375 -59.976562 11.78125 -60.015625 11.3125 -59.921875 C 11.0625 -59.867188 10.789062 -59.726562 10.5 -59.5 C 10.207031 -59.269531 9.929688 -59.015625 9.671875 -58.734375 C 9.410156 -58.453125 9.203125 -58.21875 9.046875 -58.03125 C 7.898438 -56.8125 6.925781 -55.40625 6.125 -53.8125 C 5.332031 -52.226562 4.695312 -50.546875 4.21875 -48.765625 C 3.738281 -46.992188 3.398438 -45.210938 3.203125 -43.421875 C 3.003906 -41.640625 2.929688 -39.941406 2.984375 -38.328125 C 3.003906 -37.960938 3.046875 -37.441406 3.109375 -36.765625 C 3.179688 -36.085938 3.289062 -35.335938 3.4375 -34.515625 C 3.59375 -33.703125 3.800781 -32.910156 4.0625 -32.140625 C 4.320312 -31.367188 4.625 -30.703125 4.96875 -30.140625 C 5.320312 -29.578125 5.734375 -29.203125 6.203125 -29.015625 C 6.671875 -28.828125 7.195312 -28.921875 7.78125 -29.296875 C 8.476562 -29.710938 9.066406 -30.273438 9.546875 -30.984375 C 10.023438 -31.703125 10.4375 -32.484375 10.78125 -33.328125 C 11.132812 -34.171875 11.46875 -35.007812 11.78125 -35.84375 C 12.101562 -36.6875 12.441406 -37.445312 12.796875 -38.125 C 14.023438 -40.507812 15.679688 -42.398438 17.765625 -43.796875 C 19.847656 -45.203125 22.242188 -45.914062 24.953125 -45.9375 C 25.046875 -45.9375 25.15625 -45.890625 25.28125 -45.796875 C 25.40625 -45.703125 25.5 -45.601562 25.5625 -45.5 C 25.625 -45.394531 25.570312 -45.320312 25.40625 -45.28125 C 23.8125 -45.019531 22.378906 -44.609375 21.109375 -44.046875 C 19.835938 -43.484375 18.679688 -42.617188 17.640625 -41.453125 C 16.597656 -40.285156 15.625 -38.640625 14.71875 -36.515625 C 14.457031 -35.878906 14.179688 -35.125 13.890625 -34.25 C 13.597656 -33.375 13.273438 -32.472656 12.921875 -31.546875 C 12.578125 -30.628906 12.171875 -29.757812 11.703125 -28.9375 C 11.234375 -28.125 10.679688 -27.441406 10.046875 -26.890625 C 9.421875 -26.347656 8.6875 -26.03125 7.84375 -25.9375 Z M 7.84375 -25.9375 "/></g></g><g transform="translate(339.119784, 133.216218)"><g><path d="M 5.25 18.859375 C 3.6875 14.410156 2.34375 9.976562 1.21875 5.5625 C 0.101562 1.15625 -0.648438 -3.394531 -1.046875 -8.09375 C -1.421875 -12.832031 -1.601562 -17.582031 -1.59375 -22.34375 C -1.582031 -27.113281 -1.4375 -31.875 -1.15625 -36.625 C -1.082031 -37.675781 -1.003906 -38.734375 -0.921875 -39.796875 C -0.847656 -40.859375 -0.765625 -41.925781 -0.671875 -43 C -0.671875 -43 -0.671875 -43.09375 -0.671875 -43.28125 C -0.671875 -43.46875 -0.660156 -43.671875 -0.640625 -43.890625 C -0.628906 -44.109375 -0.59375 -44.253906 -0.53125 -44.328125 C 0.125 -51.171875 1.078125 -57.984375 2.328125 -64.765625 C 3.578125 -71.554688 5.125 -78.257812 6.96875 -84.875 C 7.132812 -85.4375 7.382812 -86.3125 7.71875 -87.5 C 8.0625 -88.6875 8.484375 -90.097656 8.984375 -91.734375 C 9.484375 -93.367188 10.054688 -95.132812 10.703125 -97.03125 C 11.347656 -98.925781 12.054688 -100.835938 12.828125 -102.765625 C 13.597656 -104.691406 14.410156 -106.550781 15.265625 -108.34375 C 16.117188 -110.144531 17.007812 -111.769531 17.9375 -113.21875 C 18.875 -114.664062 19.832031 -115.859375 20.8125 -116.796875 C 21.789062 -117.734375 22.785156 -118.304688 23.796875 -118.515625 C 24.816406 -118.722656 25.832031 -118.460938 26.84375 -117.734375 C 27.539062 -117.242188 28.039062 -116.054688 28.34375 -114.171875 C 28.644531 -112.296875 28.644531 -109.734375 28.34375 -106.484375 C 28.039062 -103.242188 27.351562 -99.328125 26.28125 -94.734375 C 25.207031 -90.140625 23.65625 -84.890625 21.625 -78.984375 C 19.800781 -73.679688 17.445312 -68.425781 14.5625 -63.21875 C 11.675781 -58.007812 8.023438 -52.71875 3.609375 -47.34375 C 3.191406 -43.675781 2.863281 -39.992188 2.625 -36.296875 C 2.394531 -32.609375 2.242188 -28.921875 2.171875 -25.234375 C 2.128906 -21.628906 2.171875 -18.03125 2.296875 -14.4375 C 2.421875 -10.84375 2.660156 -7.242188 3.015625 -3.640625 C 3.410156 0.0976562 3.8125 3.867188 4.21875 7.671875 C 4.625 11.484375 5.320312 15.210938 6.3125 18.859375 C 6.375 19.066406 6.320312 19.1875 6.15625 19.21875 C 6 19.25 5.820312 19.226562 5.625 19.15625 C 5.425781 19.09375 5.300781 18.992188 5.25 18.859375 Z M 7.1875 -69.484375 C 5.738281 -62.734375 4.613281 -55.957031 3.8125 -49.15625 C 7.695312 -53.851562 11.023438 -58.914062 13.796875 -64.34375 C 16.578125 -69.78125 18.953125 -75.394531 20.921875 -81.1875 C 21.953125 -84.175781 22.875 -87.207031 23.6875 -90.28125 C 24.507812 -93.351562 25.257812 -96.441406 25.9375 -99.546875 C 26.375 -101.554688 26.722656 -103.582031 26.984375 -105.625 C 27.242188 -107.675781 27.242188 -109.726562 26.984375 -111.78125 C 26.910156 -112.320312 26.800781 -112.859375 26.65625 -113.390625 C 26.519531 -113.929688 26.332031 -114.390625 26.09375 -114.765625 C 25.863281 -115.140625 25.550781 -115.347656 25.15625 -115.390625 C 24.757812 -115.441406 24.257812 -115.222656 23.65625 -114.734375 C 23.257812 -114.398438 22.890625 -113.960938 22.546875 -113.421875 C 22.210938 -112.890625 21.90625 -112.332031 21.625 -111.75 C 21.34375 -111.164062 21.070312 -110.640625 20.8125 -110.171875 C 18.476562 -106.035156 16.472656 -101.707031 14.796875 -97.1875 C 13.128906 -92.664062 11.6875 -88.066406 10.46875 -83.390625 C 9.257812 -78.722656 8.164062 -74.085938 7.1875 -69.484375 Z M 7.1875 -69.484375 "/></g></g></g><g clip-path="url(#90e71642af)"><g clip-path="url(#1c2570df00)"><g transform="matrix(1, 0, 0, 1, 383, 3)"><g clip-path="url(#80b52c51aa)"><g clip-path="url(#8e99093ae8)"><g clip-path="url(#5d32305de6)"><path fill="#84e1ba" d="M 0.738281 0.0234375 L 44.347656 0.0234375 L 44.347656 153.5 L 0.738281 153.5 Z M 0.738281 0.0234375 " fill-opacity="1" fill-rule="nonzero"/></g></g></g></g></g></g><g clip-path="url(#7db13416a6)"><g clip-path="url(#8069b2a50e)"><g transform="matrix(1, 0, 0, 1, 379, -0.000000000000027367)"><g clip-path="url(#dec30ceedd)"><g clip-path="url(#8737d56498)"><g clip-path="url(#3a70611482)"><path fill="#ffb86a" d="M 0.0273438 0.539062 L 43.632812 0.539062 L 43.632812 154.015625 L 0.0273438 154.015625 Z M 0.0273438 0.539062 " fill-opacity="1" fill-rule="nonzero"/></g></g></g></g></g></g><g clip-path="url(#9cc00d69ec)"><g clip-path="url(#e7376a25de)"><g clip-path="url(#d92a4b5c51)"><g transform="matrix(1, 0, 0, 1, 7, 50)"><g clip-path="url(#218d345c5e)"><g clip-path="url(#d0dd284cbf)"><g clip-path="url(#875dee78d9)"><g clip-path="url(#4cbe708a74)"><path fill="#84e1ba" d="M 9.0625 -1.554688 L 82.339844 30.722656 L 71.648438 54.992188 L -1.628906 22.710938 Z M 9.0625 -1.554688 " fill-opacity="1" fill-rule="nonzero"/></g></g></g></g></g></g></g></g><g clip-path="url(#fe5fa4fbad)"><g clip-path="url(#1fa28109a8)"><g clip-path="url(#1c52b97665)"><g transform="matrix(1, 0, 0, 1, 12, 88)"><g clip-path="url(#35c576cd05)"><g clip-path="url(#ff6966c8e7)"><g clip-path="url(#2344066f39)"><g clip-path="url(#d6b292a061)"><path fill="#84e1ba" d="M -2.191406 33.664062 L 75.261719 -1.441406 L 82.03125 13.488281 L 4.578125 48.59375 Z M -2.191406 33.664062 " fill-opacity="1" fill-rule="nonzero"/></g></g></g></g></g></g></g></g><g clip-path="url(#17cde41991)"><g clip-path="url(#3be40b7c45)"><g clip-path="url(#2f0aef501f)"><g transform="matrix(1, 0, 0, 1, 4, 43)"><g clip-path="url(#322f35adb2)"><g clip-path="url(#f749ee4a85)"><g clip-path="url(#ee874d66b9)"><g clip-path="url(#4e44ede972)"><path fill="#ffb86a" d="M 8.773438 -2.039062 L 90.171875 34.417969 L 79.8125 57.546875 L -1.585938 21.089844 Z M 8.773438 -2.039062 " fill-opacity="1" fill-rule="nonzero"/></g></g></g></g></g></g></g></g><g clip-path="url(#71453ad921)"><g clip-path="url(#d4093e3e00)"><g clip-path="url(#38e899ecae)"><g transform="matrix(1, 0, 0, 1, 4, 75)"><g clip-path="url(#4425b81740)"><g clip-path="url(#f6455c5025)"><g clip-path="url(#de8de215a7)"><g clip-path="url(#3fc45d81ca)"><path fill="#ffb86a" d="M -1.582031 35.226562 L 79.710938 -1.515625 L 90.222656 21.738281 L 8.925781 58.480469 Z M -1.582031 35.226562 " fill-opacity="1" fill-rule="nonzero"/></g></g></g></g></g></g></g></g></svg>